<?xml version="1.0" encoding="utf-8"?>
<!-- Generator: Adobe Illustrator 16.0.0, SVG Export Plug-In . SVG Version: 6.00 Build 0)  -->
<!DOCTYPE svg PUBLIC "-//W3C//DTD SVG 1.1//EN" "http://www.w3.org/Graphics/SVG/1.1/DTD/svg11.dtd">
<svg version="1.1" id="Layer_1" xmlns="http://www.w3.org/2000/svg" xmlns:xlink="http://www.w3.org/1999/xlink" x="0px" y="0px"
	 width="370px" height="42.403px" viewBox="0 0 370 42.403" enable-background="new 0 0 370 42.403" xml:space="preserve">
<rect y="2" fill="#474747" width="370" height="10"/>
<polygon fill="#474747" points="86.047,42.403 76.904,42.403 73.372,9.156 86.047,9.156 "/>
<polygon fill="#474747" points="283.953,42.403 293.096,42.403 296.629,9.156 283.953,9.156 "/>
<linearGradient id="SVGID_1_" gradientUnits="userSpaceOnUse" x1="185.0439" y1="37.4004" x2="184.9951" y2="1.2042">
	<stop  offset="0.0456" style="stop-color:#594A42"/>
	<stop  offset="0.2036" style="stop-color:#5B4D44"/>
	<stop  offset="0.2069" style="stop-color:#5B4D44"/>
	<stop  offset="0.3168" style="stop-color:#61544A"/>
	<stop  offset="0.6224" style="stop-color:#63564B"/>
	<stop  offset="0.795" style="stop-color:#726658"/>
	<stop  offset="0.8473" style="stop-color:#66594E"/>
	<stop  offset="0.9212" style="stop-color:#5C4E45"/>
	<stop  offset="1" style="stop-color:#594A42"/>
</linearGradient>
<path fill="url(#SVGID_1_)" d="M370,0H0v10h66.625c0,0,1.35,0.351,1.574,1.538s5.83,30.865,5.83,30.865h9.143
	c0,0-5.438-28.53-5.743-30.404S78.875,10,78.875,10H290.75c0,0,2.16,0.199,1.82,2s-5.742,30.403-5.742,30.403h9.143
	c0,0,5.541-29.512,5.832-30.879S304.156,10,304.156,10H370V0z"/>
</svg>
