<?xml version="1.0" encoding="utf-8"?>
<!-- Generator: Adobe Illustrator 16.0.0, SVG Export Plug-In . SVG Version: 6.00 Build 0)  -->
<!DOCTYPE svg PUBLIC "-//W3C//DTD SVG 1.1//EN" "http://www.w3.org/Graphics/SVG/1.1/DTD/svg11.dtd">
<svg version="1.1" id="Layer_1" xmlns="http://www.w3.org/2000/svg" xmlns:xlink="http://www.w3.org/1999/xlink" x="0px" y="0px"
	 width="100px" height="100px" viewBox="0 0 100 100" enable-background="new 0 0 100 100" xml:space="preserve">
<path fill="#FFFFFF" d="M56.074,44.544c1.888-1.98,3.054-4.654,3.054-7.606c0-6.094-4.939-11.033-11.032-11.033
	c-2.254,0-4.349,0.679-6.096,1.84v-0.72c0,0,0.643-2.024-1.739-2.024C37.88,25,33,25,33,25s0,39.583,0,42.25S30.375,75,30.375,75
	s5.292,0,9.115,0c3.824,0,2.51-2.899,2.51-2.899v-0.043c2.606,1.933,5.822,3.09,9.315,3.09c8.655,0,15.671-7.018,15.671-15.672
	C66.986,52.48,62.401,46.56,56.074,44.544z M39.092,38.011c0-2.009,1.628-3.638,3.638-3.638c2.008,0,3.638,1.628,3.638,3.638
	c0,2.009-1.629,3.638-3.638,3.638C40.72,41.648,39.092,40.02,39.092,38.011z M47.571,64.565c-3.353,0-6.071-3.242-6.071-7.24
	c0-3.999,2.718-7.243,6.071-7.243c3.352,0,6.071,3.244,6.071,7.243C53.643,61.323,50.923,64.565,47.571,64.565z"/>
</svg>
