<?xml version="1.0" encoding="utf-8"?>
<!-- Generator: Adobe Illustrator 16.0.0, SVG Export Plug-In . SVG Version: 6.00 Build 0)  -->
<!DOCTYPE svg PUBLIC "-//W3C//DTD SVG 1.1//EN" "http://www.w3.org/Graphics/SVG/1.1/DTD/svg11.dtd">
<svg version="1.1" id="Layer_1" xmlns="http://www.w3.org/2000/svg" xmlns:xlink="http://www.w3.org/1999/xlink" x="0px" y="0px"
	 width="100px" height="100px" viewBox="0 0 100 100" enable-background="new 0 0 100 100" xml:space="preserve">
<path fill="#FFFFFF" d="M65,25H35c-5.523,0-10,4.477-10,10v30c0,5.522,4.477,10,10,10h30c5.522,0,10-4.478,10-10V35
	C75,29.477,70.522,25,65,25z M50,60.388c-5.737,0-10.388-4.65-10.388-10.388c0-5.737,4.651-10.388,10.388-10.388
	c1.898,0,3.672,0.518,5.203,1.406c-1.422,0.489-2.449,1.823-2.449,3.411c0,2,1.619,3.622,3.62,3.622c1.42,0,2.634-0.824,3.228-2.012
	c0.504,1.221,0.786,2.558,0.786,3.961C60.388,55.737,55.737,60.388,50,60.388z M64.243,38.238c-1.549,0-2.804-1.255-2.804-2.804
	s1.255-2.804,2.804-2.804s2.804,1.255,2.804,2.804S65.792,38.238,64.243,38.238z"/>
</svg>
