<?xml version="1.0" encoding="utf-8"?>
<!-- Generator: Adobe Illustrator 16.0.0, SVG Export Plug-In . SVG Version: 6.00 Build 0)  -->
<!DOCTYPE svg PUBLIC "-//W3C//DTD SVG 1.1//EN" "http://www.w3.org/Graphics/SVG/1.1/DTD/svg11.dtd">
<svg version="1.1" id="Layer_1" xmlns="http://www.w3.org/2000/svg" xmlns:xlink="http://www.w3.org/1999/xlink" x="0px" y="0px"
	 width="19px" height="17px" viewBox="0 0 19 17" enable-background="new 0 0 19 17" xml:space="preserve">
<g>
	<path fill="#FFFFFF" d="M19,1.514c0,0.836-0.681,1.514-1.521,1.514H1.52C0.681,3.027,0,2.35,0,1.514l0,0C0,0.678,0.681,0,1.52,0
		h15.959C18.319,0,19,0.678,19,1.514L19,1.514z"/>
	<path fill="#FFFFFF" d="M19,8.535c0,0.836-0.681,1.513-1.521,1.513H1.52C0.681,10.048,0,9.371,0,8.535l0,0
		c0-0.836,0.681-1.514,1.52-1.514h15.959C18.319,7.021,19,7.699,19,8.535L19,8.535z"/>
	<path fill="#FFFFFF" d="M19,15.486C19,16.322,18.319,17,17.479,17H1.52C0.681,17,0,16.322,0,15.486l0,0
		c0-0.836,0.681-1.514,1.52-1.514h15.959C18.319,13.973,19,14.65,19,15.486L19,15.486z"/>
</g>
</svg>
