<?xml version="1.0" encoding="utf-8"?>
<!-- Generator: Adobe Illustrator 16.0.0, SVG Export Plug-In . SVG Version: 6.00 Build 0)  -->
<!DOCTYPE svg PUBLIC "-//W3C//DTD SVG 1.1//EN" "http://www.w3.org/Graphics/SVG/1.1/DTD/svg11.dtd">
<svg version="1.1" id="Layer_1" xmlns="http://www.w3.org/2000/svg" xmlns:xlink="http://www.w3.org/1999/xlink" x="0px" y="0px"
	 width="66.364px" height="19.869px" viewBox="0 0 66.364 19.869" enable-background="new 0 0 66.364 19.869" xml:space="preserve">
<path fill="#FFFFFF" d="M8.14,19.49c-0.848-0.268-1.472-0.505-1.874-0.713c-0.833-0.327-1.687-0.803-2.564-1.428
	c-0.164-0.029-0.617-0.394-1.36-1.093c-0.773-0.966-1.241-1.628-1.405-1.984C0.313,13.038,0,12.027,0,11.239V10.57
	c0-0.148,0.075-0.632,0.223-1.449c0.357-1.145,0.744-2.059,1.16-2.743c0.089-0.342,0.625-1.019,1.605-2.029
	c0.521-0.491,0.847-0.781,0.981-0.87c1.205-0.773,2.044-1.249,2.52-1.427C7.53,1.605,8.511,1.286,9.433,1.093
	c1.77-0.342,3.167-0.513,4.192-0.513h0.848c1.635,0.015,2.453,0.037,2.453,0.067c0.996,0,2.884,0.401,5.664,1.204
	c0.164-0.179,0.394-0.342,0.691-0.491c0.312-0.223,0.899-0.468,1.761-0.736c1.219-0.223,2.342-0.334,3.368-0.334
	c0.252,0,0.379,0.007,0.379,0.022c0.714,0,1.546,0.134,2.498,0.402l0.201-0.112C33.182,0.201,34.312,0,34.876,0h0.691l1.338,0.044
	c0.981,0.104,1.725,0.238,2.23,0.401c0.877,0.193,1.91,0.536,3.1,1.026c1.264,0.595,2.602,1.338,4.014,2.23l-0.089-0.089V3.59h0.045
	c0.505-0.238,0.78-0.372,0.824-0.401c1.65-0.758,2.907-1.286,3.77-1.583c1.68-0.49,2.75-0.736,3.211-0.736
	c0.313-0.104,1.285-0.186,2.921-0.245c0.639,0,1.598,0.134,2.877,0.401c0.967,0.283,1.613,0.542,1.94,0.781
	c0.594,0.297,1.129,0.646,1.605,1.048c0.521,0.372,0.922,0.773,1.204,1.204c0.505,0.535,0.832,1.063,0.98,1.583
	c0.224,0.297,0.432,0.899,0.625,1.806c0.074,0,0.142,0.676,0.2,2.029L66.275,9.79c0,0.327-0.119,0.773-0.356,1.338
	c0,0.253-0.424,1.056-1.271,2.409c0,0.029-0.387,0.468-1.159,1.315c-0.193,0.223-0.461,0.468-0.803,0.735
	c-1.012,0.699-1.77,1.16-2.275,1.383c-0.98,0.416-1.895,0.721-2.742,0.914c-1.65,0.282-2.988,0.432-4.015,0.446h-1.025
	c-0.58,0-1.984-0.201-4.215-0.603c-1.933-0.579-3.501-1.137-4.705-1.672c-0.164,0-1.464-0.729-3.902-2.186
	c-0.64,0.238-1.368,0.461-2.186,0.669c-0.237,0.119-1.115,0.245-2.631,0.379h-0.848c-0.61,0-1.353-0.119-2.23-0.356
	c-0.357-0.03-0.848-0.208-1.472-0.535c-0.506-0.179-1.056-0.506-1.65-0.981c-0.208-0.104-0.714-0.55-1.517-1.338
	c-0.148-0.134-0.349-0.453-0.602-0.959c0-0.045-0.268-0.142-0.803-0.29c-0.907-0.371-1.628-0.766-2.163-1.182
	c-0.148-0.045-0.587-0.454-1.315-1.227c-0.565-0.654-0.907-1.204-1.026-1.65c-0.089,0-0.193-0.438-0.312-1.315l0.022-0.223
	c0-0.431,0.059-0.788,0.179-1.07c0.119-0.401,0.305-0.758,0.557-1.07c-1.903-0.639-2.966-0.959-3.188-0.959
	c-2.052-0.446-3.858-0.669-5.419-0.669h-0.357c-0.595,0-1.695,0.156-3.3,0.468C8.652,1.813,7.797,2.148,6.98,2.564
	c-0.164,0-1.019,0.498-2.564,1.494C3.345,5.04,2.706,5.716,2.498,6.088C2.052,6.549,1.568,7.396,1.048,8.63
	C0.84,9.254,0.684,10.035,0.58,10.971v0.491c0,0.387,0.119,0.914,0.356,1.583c0.134,0.431,0.491,1.033,1.071,1.807
	c0,0.118,0.498,0.632,1.494,1.538c1.13,0.833,1.725,1.249,1.784,1.249c1.323,0.624,2.104,0.937,2.341,0.937
	c1.368,0.446,2.646,0.669,3.836,0.669l1.895-0.156c1.576-0.282,2.706-0.572,3.39-0.869c0.193,0,0.833-0.305,1.918-0.914l1.137-1.004
	c0.654-0.862,1.033-1.412,1.137-1.65c0.089,0,0.223-0.535,0.401-1.605v-0.469l-0.156-0.914c0-0.163-0.201-0.558-0.602-1.182
	c-0.773-0.773-1.227-1.174-1.36-1.204c-0.179-0.238-0.632-0.513-1.36-0.825c-1.13-0.446-1.748-0.669-1.851-0.669
	c-0.952-0.208-1.94-0.313-2.966-0.313l-0.803,0.067c-0.58,0-1.479,0.201-2.698,0.603c-0.58,0.268-1.152,0.617-1.717,1.048
	c-0.431,0.446-0.654,0.736-0.669,0.87c-0.193,0.268-0.327,0.669-0.401,1.204l0.022,0.179c0,0.624,0.223,1.241,0.669,1.851
	c0.505,0.446,1.145,0.848,1.918,1.204c1.145,0.268,1.88,0.401,2.208,0.401h0.758c1.353-0.223,2.03-0.387,2.03-0.49
	c1.115-0.521,1.739-1.004,1.873-1.449v-0.335c-0.06-0.148-0.164-0.35-0.312-0.602c-0.298-0.372-0.603-0.625-0.915-0.759
	c0-0.089-0.632-0.23-1.896-0.424h-0.736v-0.044l0.602-0.045h0.357c0.431,0,0.884,0.045,1.36,0.134
	c0.446,0.089,0.758,0.201,0.937,0.335c0.164,0.015,0.454,0.237,0.87,0.668c0.119,0.164,0.193,0.439,0.223,0.825l-0.044,0.335
	c0,0.148-0.208,0.491-0.624,1.025c-0.149,0.119-0.55,0.372-1.205,0.759c-1.085,0.401-2.215,0.616-3.389,0.646
	c-0.446,0-1.085-0.089-1.918-0.268C8.846,15,8.266,14.733,7.805,14.406c-0.61-0.521-0.915-0.811-0.915-0.869
	c-0.476-0.565-0.713-1.294-0.713-2.187l0.067-0.133c0.074-0.521,0.245-1.056,0.513-1.606c0.401-0.535,0.661-0.854,0.781-0.958
	c0.594-0.55,1.174-0.981,1.739-1.293c0.833-0.327,1.568-0.558,2.208-0.691c0-0.089,0.654-0.164,1.962-0.223
	c1.16,0.104,2.148,0.245,2.966,0.424c0.848,0.282,1.717,0.676,2.609,1.182c0.476,0.327,1.122,0.915,1.94,1.762
	c0.178,0.193,0.394,0.542,0.646,1.048c0.089,0,0.193,0.514,0.313,1.539v0.803c0,0.163-0.134,0.766-0.401,1.806
	c-0.387,0.699-0.818,1.309-1.293,1.829c-0.164,0.193-0.632,0.595-1.405,1.204c-0.238,0.119-0.811,0.395-1.717,0.825
	c-1.413,0.506-2.282,0.758-2.609,0.758c-0.729,0.164-1.77,0.245-3.122,0.245C10.54,19.869,9.463,19.743,8.14,19.49 M21.765,5.642
	c0.223,0.699,0.379,1.092,0.468,1.182c0.208,0.417,0.55,0.885,1.026,1.405c0.074,0.089,0.446,0.379,1.115,0.87
	c0.996,0.506,1.62,0.773,1.873,0.803c0-0.074-0.06-0.282-0.179-0.624c-0.164-0.342-0.245-0.981-0.245-1.918l0.201-0.914
	c0-0.208,0.171-0.699,0.513-1.472h-0.045c-1.442-0.803-2.81-1.479-4.103-2.029c-0.134,0.045-0.313,0.32-0.535,0.825
	c-0.089,0-0.164,0.364-0.223,1.093L21.765,5.642z M23.638,2.252c1.174,0.431,2.349,0.944,3.523,1.539
	c0.044,0,0.074-0.03,0.089-0.089c0-0.119,0.423-0.58,1.271-1.382c1.07-0.773,1.68-1.16,1.829-1.16V1.115
	c-0.417-0.134-1.182-0.26-2.297-0.379c-1.101,0-2.208,0.193-3.323,0.58c-0.625,0.252-1.107,0.505-1.449,0.758
	C23.281,2.089,23.4,2.148,23.638,2.252 M27.139,10.191c0.892,0.179,1.695,0.298,2.409,0.356c0.669-0.059,1.234-0.126,1.695-0.2
	c0.877-0.119,1.731-0.282,2.564-0.49V9.812L31.688,8.34c-1.725-1.234-3.264-2.252-4.616-3.055c-0.164,0.312-0.334,0.974-0.513,1.985
	v1.137C26.752,9.344,26.946,9.938,27.139,10.191 M29.146,12.488c0.357,0.342,0.78,0.603,1.271,0.78
	c0.387,0.238,0.944,0.461,1.672,0.669c0.327,0.134,1.16,0.261,2.498,0.38l1.271-0.045c0.372,0,1.442-0.268,3.211-0.803v-0.022
	l-0.312-0.179c-0.224-0.118-1.665-1.122-4.326-3.011c-1.071,0.283-1.673,0.439-1.807,0.469c-1.382,0.208-2.787,0.313-4.214,0.313
	l-0.803-0.111h-0.044C28.231,11.714,28.759,12.235,29.146,12.488 M30.216,5.375c0.401,0.238,2.319,1.494,5.753,3.769
	c1.146-0.417,2.155-0.811,3.033-1.182l1.315-0.602l-1.896-1.516c-0.937-0.729-2.305-1.71-4.103-2.944
	c-1.026-0.609-2.038-1.107-3.033-1.494c-0.505,0.193-0.847,0.35-1.026,0.468c-0.699,0.402-1.159,0.744-1.382,1.026
	c-0.446,0.342-0.818,0.729-1.115,1.16L30.216,5.375z M41.544,6.512l3.836-2.208c-0.67-0.461-1.331-0.893-1.985-1.293
	c-0.476-0.327-1.382-0.811-2.721-1.45c-1.813-0.654-3.359-0.981-4.638-0.981l-1.829,0.134c-1.234,0.193-1.851,0.312-1.851,0.356
	c0.193,0.06,0.305,0.097,0.334,0.112c0.491,0.089,1.732,0.699,3.724,1.829c1.189,0.743,2.892,1.91,5.106,3.501H41.544z
	 M43.061,13.759c0.981,0.624,2.155,1.264,3.523,1.917c0.192,0.075,0.974,0.357,2.342,0.848c2.021,0.551,3.396,0.825,4.125,0.825
	h0.848c1.516-0.089,2.431-0.171,2.742-0.245c0.506,0,1.204-0.148,2.097-0.446c1.101-0.342,1.843-0.632,2.229-0.869
	c0.862-0.446,1.486-0.862,1.874-1.249c0.386-0.342,0.869-0.885,1.449-1.628c0.387-0.535,0.766-1.405,1.137-2.609
	c0.075,0,0.171-0.461,0.29-1.382l-0.044-0.646c-0.09-0.862-0.187-1.36-0.29-1.494c-0.149-0.58-0.499-1.293-1.049-2.141
	c-0.743-0.832-1.227-1.315-1.449-1.449c-0.624-0.505-1.101-0.795-1.427-0.87c-0.595-0.313-1.368-0.602-2.319-0.87
	c-0.253-0.119-1.13-0.238-2.632-0.357h-0.066c-1.294,0.074-2.401,0.201-3.322,0.379c-1.249,0.342-2.208,0.677-2.877,1.003
	c-1.428,0.625-2.521,1.175-3.278,1.65c1.011,0.625,2.534,1.539,4.571,2.743c0.104-0.03,0.371-0.142,0.803-0.335
	c0.862-0.386,1.383-0.58,1.562-0.58c0.847-0.223,1.598-0.334,2.252-0.334h0.379c1.026,0.134,1.643,0.26,1.851,0.379
	c0.298,0,0.796,0.327,1.495,0.981c0.386,0.58,0.579,1.107,0.579,1.583v0.133c0,0.357-0.156,0.848-0.468,1.472
	c-0.268,0.446-0.528,0.766-0.781,0.959c-0.387,0.327-0.832,0.654-1.338,0.981c-1.025,0.476-1.628,0.714-1.807,0.714
	c-0.906,0.252-1.761,0.379-2.563,0.379h-0.379l-1.517-0.089c-0.387,0-1.152-0.149-2.297-0.446c-1.16-0.432-1.94-0.766-2.342-1.004
	c-0.521-0.193-1.457-0.729-2.81-1.605c-0.759-0.446-1.829-1.204-3.211-2.274c-0.254,0.104-0.409,0.186-0.469,0.245
	c-1.323,0.595-2.617,1.107-3.88,1.539v0.023c0.029,0,0.059,0.015,0.089,0.044c2.126,1.472,3.612,2.468,4.46,2.988l2.564-1.204
	c0.432-0.313,0.84-0.558,1.227-0.736c0.06,0,0.245,0.097,0.558,0.29c-0.446,0.357-1.658,1.056-3.635,2.097L43.061,13.759z
	 M42.325,7.069c1.665,1.16,3.025,2.066,4.081,2.721l0.759-0.513c1.561-0.952,2.594-1.546,3.1-1.784V7.47
	c-0.075-0.015-0.112-0.037-0.112-0.066c-0.253,0-1.68-0.915-4.281-2.743c-1.278,0.803-2.505,1.554-3.68,2.252v0.044L42.325,7.069z
	 M49.773,11.506c0.699,0.283,1.264,0.461,1.695,0.535c0.535,0.164,1.419,0.29,2.653,0.38c1.219,0,2.364-0.253,3.435-0.759
	c0.49-0.208,1.04-0.572,1.649-1.093c0.327-0.253,0.595-0.772,0.803-1.561V8.541c0-0.431-0.237-0.915-0.713-1.45
	c-0.253-0.208-0.633-0.431-1.138-0.669c-1.025-0.193-1.613-0.29-1.762-0.29h-0.869c-0.313,0-0.893,0.126-1.74,0.379
	c-1.056,0.372-1.62,0.595-1.694,0.669c0.045,0,0.245,0.089,0.603,0.268c1.635,0.654,2.698,0.981,3.188,0.981h0.869l0.29-0.067
	c0.045,0.03,0.097,0.097,0.156,0.201c-0.237,0.163-0.579,0.245-1.025,0.245h-1.07c-0.343,0-0.996-0.112-1.963-0.334
	c-1.204-0.297-1.947-0.535-2.229-0.714c-0.327,0.119-0.61,0.26-0.848,0.424c-1.338,0.743-2.118,1.227-2.342,1.449l-0.691,0.514
	C48.532,10.95,49.446,11.403,49.773,11.506"/>
</svg>
