<?xml version="1.0" encoding="utf-8"?>
<!-- Generator: Adobe Illustrator 16.0.0, SVG Export Plug-In . SVG Version: 6.00 Build 0)  -->
<!DOCTYPE svg PUBLIC "-//W3C//DTD SVG 1.1//EN" "http://www.w3.org/Graphics/SVG/1.1/DTD/svg11.dtd">
<svg version="1.1" id="Layer_1" xmlns="http://www.w3.org/2000/svg" xmlns:xlink="http://www.w3.org/1999/xlink" x="0px" y="0px"
	 width="234.936px" height="289.914px" viewBox="0 0 234.936 289.914" enable-background="new 0 0 234.936 289.914"
	 xml:space="preserve">
<g>
	<path d="M229.869,137.247h-0.668c-1.295,0-2.389,0.826-2.809,1.977c-0.73,0.213-2.207,0.75-5.023,2.107
		c-2.166,1.045-3.393,1.68-4.092,2.583h-34.109c-0.367-2.003-1.275-2.588-3.508-3.625c-1.457-0.677-3.586-1.7-5.574-2.664v-15.211
		c0-2.762-2.24-5-5-5h-21.441l7.092-16.96c21.334-5.84,37.018-25.353,37.018-48.54c0-27.799-22.535-50.334-50.334-50.334
		c-27.799,0-50.334,22.535-50.334,50.334c0,22.625,14.928,41.76,35.469,48.101c-2.881,5.557-6.4,11.565-10.528,17.399h-13.244
		l-17.202-23.3c6.382-13.153,6.197-29.166-1.92-42.615C70.913,30.378,43.458,23.592,22.337,36.34
		C1.218,49.088-5.569,76.542,7.179,97.663c10.453,17.317,30.793,24.988,49.423,20.165c-1.773,0.768-3.016,2.531-3.016,4.586v14.666
		h-3.504c-1.657,0-3,1.343-3,3v22c0,1.657,1.343,3,3,3h3.504v16.167c0,2.762,2.239,5,5,5h34.729v5.5c0,1.657,1.343,3,3,3h2.783
		v8.875h-2.783c-1.657,0-3,1.343-3,3v4H62.12c-1.657,0-3,1.343-3,3v73.292c0,1.657,1.343,3,3,3h79.931
		c0,0,27.5-52.319,28.131-53.521s0.938-2.808,0.938-4.354s0-18.417,0-18.417c0-1.657-1.344-3-3-3h-36v-4c0-1.657-1.344-3-3-3h-3.209
		v-8.875h3.209c1.656,0,3-1.343,3-3v-5.5h36.967c2.76,0,5-2.238,5-5l0,0v-7.288c1.766-1.172,4.014-2.608,5.949-3.67
		c3.105-1.703,3.4-2.769,3.396-5.375h33.854c0.043,0,0.084-0.011,0.127-0.013c0.502,0.58,1.215,1,2.207,1.43
		c1.555,0.674,4.561,1.831,6.611,2.609c0.141,1.525,1.41,2.724,2.971,2.724h0.668c1.656,0,3-1.343,3-3v-28.417
		C232.869,138.59,231.525,137.247,229.869,137.247z M157.818,93.084l1.908-4.564l1.703,2.951
		C160.258,92.065,159.047,92.594,157.818,93.084z M161.6,76.131l-1.482,3.604l-1-1.731C159.977,77.42,160.803,76.794,161.6,76.131z
		 M141.682,83.432c4.773-0.039,9.293-1.134,13.334-3.07l2.83,4.9l-3.754,9.132c-3.92,1.171-8.066,1.814-12.361,1.844
		C141.846,91.633,141.861,87.055,141.682,83.432z M165.529,89.11l-3.508-6.078l5.832-13.951c2.041-3.136,3.539-6.656,4.361-10.43
		l0.002-0.004l0,0c0.297-1.37,0.504-2.772,0.617-4.202h12.842C184.857,68.982,177.033,81.638,165.529,89.11z M185.697,49.716
		h-12.838c-0.68-9.877-5.906-18.501-13.605-23.794l6.416-11.114C177.186,22.35,184.982,35.099,185.697,49.716z M141.42,7.58
		c7.262,0,14.109,1.758,20.16,4.854l-6.412,11.105c-4.156-2.017-8.82-3.15-13.748-3.15c-4.93,0-9.594,1.133-13.748,3.15
		l-6.412-11.105C127.309,9.338,134.156,7.58,141.42,7.58z M117.169,14.808l6.415,11.113c-7.7,5.294-12.924,13.919-13.605,23.797
		H97.142C97.854,35.1,105.651,22.35,117.169,14.808z M97.163,54.446h12.842c0.779,9.797,6.029,18.333,13.718,23.559l-6.412,11.106
		C105.806,81.639,97.981,68.982,97.163,54.446z M121.408,91.472l6.414-11.11c2.041,0.977,4.203,1.732,6.457,2.255
		c-1.129,3.122-2.807,7.246-5.014,11.919C126.533,93.756,123.9,92.735,121.408,91.472z M140.535,116.83
		c0.201-0.727,0.682-7.097,0.994-14.585c3.33-0.007,6.582-0.341,9.732-0.966l-6.633,16.135h-4.332
		C140.395,117.23,140.479,117.037,140.535,116.83z M99,117.414h-8.476c-2.813-1.695-6.818-4.301-12.238-8.25
		c-0.854-0.622-1.665-1.247-2.441-1.872c3.204-2.975,5.901-6.356,8.055-10.015L99,117.414z M72.407,81.952l6.659,8.879l-8.238-4.544
		C71.468,84.899,71.999,83.451,72.407,81.952z M68.788,89.956l9.975,5.502c-1.893,3.029-4.222,5.82-6.949,8.288
		c-3.366-3.239-5.745-6.295-7.343-8.686C66.104,93.539,67.555,91.826,68.788,89.956z M81.933,89.172l-8.68-11.757
		c0.094-0.932,0.143-1.878,0.143-2.835c0-4.488-1.063-8.726-2.941-12.485l9.75-5.885C85.776,66.736,86.08,78.774,81.933,89.172z
		 M78.053,52.606L68.3,58.492C63.53,51.72,55.835,47.16,47.049,46.655l-0.222-11.388C59.036,35.719,70.807,41.828,78.053,52.606z
		 M25.088,40.898c5.518-3.331,11.526-5.136,17.542-5.558l0.222,11.386c-8.75,0.797-16.332,5.621-20.882,12.605l-9.972-5.501
		C15.175,48.704,19.571,44.228,25.088,40.898z M9.979,57.51l9.971,5.501c-1.604,3.527-2.505,7.441-2.505,11.569
		c0,4.595,1.115,8.926,3.078,12.751l-9.751,5.886C4.612,81.784,4.688,68.522,9.979,57.51z M12.957,96.8l9.755-5.888
		c4.81,6.676,12.484,11.149,21.227,11.605l0.221,11.379C31.993,113.496,20.246,107.468,12.957,96.8z M48.135,102.423
		c1.51-0.146,2.985-0.411,4.416-0.787c0.136,4.306,1.176,8.096,2.418,11.112c-2.187,0.546-4.399,0.899-6.613,1.063L48.135,102.423z"
		/>
	<path fill="#FFFAB9" d="M234.937,166.355c0,1.001-1.008,1.813-2.25,1.813l0,0c-1.242,0-2.25-0.812-2.25-1.813v-25.751
		c0-1.001,1.008-1.813,2.25-1.813l0,0c1.242,0,2.25,0.812,2.25,1.813V166.355z"/>
	<g>
		<polygon fill="#252525" points="171.472,57.068 145.54,119.084 142.547,119.084 168.04,57.068 		"/>
		<polygon fill="#252525" points="70.415,73.001 104.165,118.716 100.415,118.716 69.415,77.376 		"/>
		<path fill="#252525" d="M135.04,76.334c-1.309,5.235-8.583,24.334-21.083,41.34h23.75c0,0,1.667-0.924,2.083-2.424
			s2.018-27,0.884-36.833S138.124,64.001,135.04,76.334z"/>
		<circle fill="#252525" cx="140.674" cy="50.334" r="31.525"/>
		<path fill="#999999" d="M140.674,0C112.875,0,90.34,22.535,90.34,50.334s22.535,50.334,50.334,50.334
			c27.8,0,50.334-22.535,50.334-50.334S168.474,0,140.674,0z M184.952,48.136h-28.446c-0.569-4.136-2.708-7.767-5.81-10.264
			l14.229-24.645C176.44,20.77,184.237,33.519,184.952,48.136z M140.674,6c7.263,0,14.11,1.758,20.16,4.854l-14.222,24.632
			c-1.838-0.735-3.838-1.151-5.938-1.151c-2.1,0-4.101,0.416-5.938,1.151l-14.221-24.632C126.563,7.758,133.411,6,140.674,6z
			 M116.423,13.228l14.229,24.645c-3.102,2.497-5.238,6.129-5.809,10.265H96.396C97.109,33.52,104.906,20.77,116.423,13.228z
			 M96.417,52.866h28.477c0.646,4.055,2.806,7.598,5.894,10.031l-14.222,24.634C105.06,80.059,97.236,67.402,96.417,52.866z
			 M140.674,94.668c-7.202,0-13.998-1.729-20.011-4.776l14.232-24.65c1.793,0.696,3.737,1.093,5.778,1.093s3.984-0.396,5.779-1.093
			l14.231,24.649C154.672,92.939,147.877,94.668,140.674,94.668z M164.784,87.53l-14.223-24.634
			c3.088-2.434,5.246-5.976,5.893-10.03h28.477C184.112,67.402,176.288,80.058,164.784,87.53z"/>
		<path fill="#252525" d="M60.957,88.584c0,0,4,9.833,16.583,19s17.583,11.132,17.583,11.132H58.54c0,0-7.75-9.216-6.667-22.049
			S60.957,88.584,60.957,88.584z"/>
		<circle cx="140.674" cy="50.334" r="1.873"/>
		<circle fill="#252525" cx="44.674" cy="73" r="27.976"/>
		<path fill="#999999" d="M21.592,34.76C0.472,47.508-6.315,74.962,6.433,96.083c12.748,21.119,40.203,27.906,61.323,15.159
			c21.12-12.748,27.907-40.203,15.16-61.323C70.167,28.798,42.712,22.012,21.592,34.76z M77.307,51.026L55.695,64.071
			c-2.331-2.881-5.62-4.659-9.122-5.135l-0.491-25.249C58.29,34.139,70.061,40.248,77.307,51.026z M24.343,39.318
			c5.518-3.331,11.526-5.136,17.542-5.558l0.491,25.235c-1.732,0.284-3.444,0.886-5.04,1.849c-1.596,0.963-2.925,2.197-3.983,3.599
			L11.252,52.25C14.429,47.124,18.825,42.648,24.343,39.318z M9.233,55.93l22.111,12.199c-1.211,3.319-1.169,7.06,0.294,10.462
			L10.025,91.637C3.866,80.204,3.942,66.942,9.233,55.93z M12.211,95.22l21.635-13.059c2.351,2.784,5.616,4.485,9.078,4.919
			l0.49,25.236C31.247,111.916,19.5,105.888,12.211,95.22z M65.004,106.684c-5.473,3.304-11.428,5.105-17.394,5.547l-0.49-25.254
			c1.682-0.294,3.341-0.884,4.891-1.819c1.55-0.936,2.845-2.129,3.89-3.48l22.116,12.2C74.847,98.951,70.477,103.381,65.004,106.684
			z M80.048,90.204L57.947,78.012c1.23-3.266,1.246-6.946-0.123-10.323L79.459,54.63C85.503,66.049,85.362,79.252,80.048,90.204z"/>
		<circle cx="44.674" cy="73.001" r="1.662"/>
		<path fill="#252525" d="M125.165,202.646c0,1.657-1.344,3-3,3h-20.813c-1.657,0-3-1.343-3-3v-9.938c0-1.657,1.343-3,3-3h20.813
			c1.656,0,3,1.343,3,3V202.646z"/>
		<path fill="#565656" d="M219.54,160.334c0,1.657-1.344,3-3,3h-37.166c-1.657,0-3-1.343-3-3v-15c0-1.657,1.343-3,3-3h37.166
			c1.656,0,3,1.343,3,3V160.334z"/>
		<path fill="#252525" d="M215.624,153.959c0,0,0-1.123,0-6.374s0.334-5.584,5-7.834s5.666-2.25,5.666-2.25l1.334,30.667
			c0,0-6.25-2.334-8.75-3.417s-3.25-2.083-3.25-5.833S215.624,153.959,215.624,153.959z"/>
		<path fill="#565656" d="M232.124,167.084c0,1.657-1.344,3-3,3h-0.668c-1.656,0-3-1.343-3-3v-28.417c0-1.657,1.344-3,3-3h0.668
			c1.656,0,3,1.343,3,3V167.084z"/>
		<path fill="#252525" d="M168.04,133.459c0,0,7.375,3.625,10.875,5.25s3.75,2.125,3.75,8.75s0,9.25,0,13.625s0.5,5.5-3.375,7.625
			s-9,5.75-9,5.75L168.04,133.459z"/>
		<path fill="#565656" d="M173.341,179.667c0,2.762-2.24,5-5,5H57.84c-2.761,0-5-2.238-5-5v-58.833c0-2.762,2.239-5,5-5h110.5
			c2.761,0,5,2.238,5,5L173.341,179.667L173.341,179.667z"/>
		<path fill="#252525" d="M138.801,160.5c0,1.657-1.343,3-3,3H49.336c-1.657,0-3-1.343-3-3v-22c0-1.657,1.343-3,3-3h86.465
			c1.657,0,3,1.343,3,3V160.5z"/>
		<path fill="#565656" d="M131.374,190.167c0,1.657-1.344,3-3,3H95.569c-1.657,0-3-1.343-3-3v-6c0-1.657,1.343-3,3-3h32.805
			c1.656,0,3,1.343,3,3V190.167z"/>
		<path fill="#565656" d="M131.374,211.042c0,1.657-1.344,3-3,3H95.569c-1.657,0-3-1.343-3-3v-6c0-1.657,1.343-3,3-3h32.805
			c1.656,0,3,1.343,3,3V211.042z"/>
		<path fill="#252525" d="M170.374,230.459c0-1.547,0-18.417,0-18.417c0-1.657-1.344-3-3-3h-106c-1.657,0-3,1.343-3,3v73.292
			c0,1.657,1.343,3,3,3h79.932c0,0,27.5-52.319,28.131-53.521S170.374,232.006,170.374,230.459z"/>
	</g>
</g>
</svg>
