<?xml version="1.0" encoding="utf-8"?>
<!-- Generator: Adobe Illustrator 16.0.0, SVG Export Plug-In . SVG Version: 6.00 Build 0)  -->
<!DOCTYPE svg PUBLIC "-//W3C//DTD SVG 1.1//EN" "http://www.w3.org/Graphics/SVG/1.1/DTD/svg11.dtd">
<svg version="1.1" id="Layer_1" xmlns="http://www.w3.org/2000/svg" xmlns:xlink="http://www.w3.org/1999/xlink" x="0px" y="0px"
	 width="142.569px" height="185.471px" viewBox="2.226 49.453 142.569 185.471"
	 enable-background="new 2.226 49.453 142.569 185.471" xml:space="preserve">
<g>
	<g>
		<path d="M94.461,134.256c-22.609,0-41.735,14.907-48.089,35.429c-14.934-6.878-33.497-16.246-43.325-23.471v23.75
			c0,0,24.998,13.326,26.498,13.742c0.727,0.201,7.097,0.682,14.585,0.993c0.006,2.883,0.266,5.703,0.737,8.452l-41.82-18.348v2.993
			l42.553,18.89c5.418,21.955,25.233,38.237,48.861,38.237c27.798,0,50.333-22.534,50.333-50.334
			C144.795,156.791,122.26,134.256,94.461,134.256z M131.568,160.339l-11.114,6.416c-5.294-7.7-13.918-12.925-23.797-13.604v-12.839
			C111.276,141.024,124.025,148.821,131.568,160.339z M69.649,204.024l-2.435-1.068l1.157-0.668
			C68.776,202.883,69.206,203.459,69.649,204.024z M91.929,140.333v12.843c-9.797,0.779-18.333,6.028-23.559,13.718l-11.106-6.412
			C64.736,148.976,77.394,141.151,91.929,140.333z M54.903,164.579l11.11,6.414c-0.951,1.986-1.693,4.09-2.214,6.279
			c-3.01-1.199-7.137-2.952-11.895-5.077C52.677,169.548,53.678,166.998,54.903,164.579z M50.137,184.901
			c4.605,0.115,9.184,0.13,12.807-0.049c0.039,4.772,1.134,9.292,3.07,13.334l-4.175,2.411l-10.165-4.46
			C50.704,192.551,50.164,188.789,50.137,184.901z M52.858,199.908l5.751,2.554l-3.705,2.139
			C54.136,203.085,53.452,201.519,52.858,199.908z M57.265,208.7l6.693-3.864l12.209,5.42c3.41,2.436,7.323,4.208,11.557,5.13
			l0.004,0.002v-0.001c1.369,0.298,2.772,0.505,4.202,0.618v12.842C77.394,228.028,64.737,220.204,57.265,208.7z M96.66,228.868
			V216.03c9.877-0.681,18.501-5.906,23.794-13.605l11.114,6.416C124.025,220.356,111.277,228.153,96.66,228.868z M122.836,198.338
			c2.018-4.155,3.15-8.819,3.15-13.748s-1.133-9.593-3.149-13.748l11.104-6.411c3.096,6.049,4.854,12.896,4.854,20.159
			s-1.758,14.11-4.854,20.16L122.836,198.338z"/>
		<path d="M53.034,109.84c15.264-9.214,20.168-29.056,10.956-44.319C54.776,50.257,34.935,45.352,19.67,54.565
			C7.001,62.212,1.479,77.181,5.232,90.778c-1.389,0.81-3.006,1.445-3.006,1.445v26.439c0,0,2.507-3.614,9.132-12.708
			c0.45-0.618,0.902-1.202,1.354-1.763c2.131,2.296,4.553,4.23,7.172,5.78L2.227,122.486v2.71l19.94-14.003
			C31.686,115.84,43.291,115.72,53.034,109.84z M25.751,108.569l8.538-6.253c0.678,0.068,1.367,0.104,2.063,0.104
			c3.243,0,6.297-0.783,9.014-2.14l4.262,7.061C42.003,111.378,33.278,111.59,25.751,108.569z M52.233,105.786l-4.259-7.056
			c4.892-3.446,8.17-9.003,8.537-15.35l8.253-0.161C64.438,92.042,60.023,100.549,52.233,105.786z M60.695,67.509
			c2.408,3.988,3.712,8.33,4.017,12.678l-8.234,0.16c-0.576-6.323-4.062-11.796-9.108-15.085l3.98-7.214
			C55.054,60.344,58.289,63.521,60.695,67.509z M48.689,56.588l-3.982,7.218c-2.549-1.16-5.372-1.822-8.354-1.822
			c-3.32,0-6.445,0.815-9.209,2.234l-4.26-7.057C31.146,52.71,40.731,52.765,48.689,56.588z M20.294,58.741l4.263,7.063
			c-4.822,3.475-8.038,9.013-8.369,15.328l-8.25,0.16C8.228,72.499,12.584,64.009,20.294,58.741z M8,84.324l8.233-0.16
			c0.105,1.094,0.316,2.155,0.589,3.19c-3.09,0.093-5.848,0.824-8.063,1.706C8.371,87.494,8.118,85.909,8,84.324z M15.277,101.279
			c2.347-2.439,4.561-4.164,6.291-5.318c1.098,1.179,2.325,2.234,3.676,3.125l-3.979,7.213
			C19.076,104.932,17.059,103.25,15.277,101.279z M27.9,100.551c1.002,0.462,2.046,0.843,3.129,1.138l-6.368,4.733L27.9,100.551z"/>
	</g>
	<g>
		<polygon fill="#252525" points="86.906,214.925 2.226,177.334 2.226,174.341 86.906,211.493 		"/>
		<polygon fill="#252525" points="35.531,100.342 2.227,124.734 2.227,122.023 32.369,99.62 		"/>
		<path fill="#252525" d="M67.64,178.493c-5.235-1.309-48.408-20.242-65.414-32.742v23.75c0,0,24.998,13.326,26.498,13.742
			s27,2.018,36.833,0.884S79.973,181.577,67.64,178.493z"/>
		<circle fill="#252525" cx="93.64" cy="184.127" r="31.525"/>
		<path fill="#999999" d="M143.974,184.127c0-27.799-22.535-50.334-50.333-50.334c-27.799,0-50.334,22.535-50.334,50.334
			c0,27.8,22.535,50.334,50.334,50.334C121.438,234.461,143.974,211.927,143.974,184.127z M95.838,228.405v-28.446
			c4.136-0.569,7.767-2.708,10.264-5.81l24.645,14.229C123.204,219.894,110.456,227.69,95.838,228.405z M137.974,184.127
			c0,7.263-1.758,14.11-4.854,20.16l-24.631-14.222c0.734-1.838,1.15-3.838,1.15-5.938c0-2.1-0.416-4.101-1.15-5.938l24.631-14.221
			C136.216,170.017,137.974,176.864,137.974,184.127z M130.747,159.876l-24.646,14.229c-2.497-3.102-6.129-5.238-10.265-5.809
			v-28.447C110.455,140.562,123.204,148.358,130.747,159.876z M91.108,139.87v28.477c-4.055,0.646-7.598,2.806-10.031,5.894
			l-24.634-14.222C63.915,148.513,76.572,140.688,91.108,139.87z M49.306,184.127c0-7.202,1.729-13.998,4.776-20.011l24.65,14.232
			c-0.696,1.793-1.093,3.737-1.093,5.778s0.396,3.984,1.093,5.779l-24.649,14.231C51.035,198.125,49.306,191.33,49.306,184.127z
			 M56.444,208.237l24.634-14.223c2.434,3.088,5.976,5.246,10.03,5.893v28.477C76.572,227.565,63.916,219.741,56.444,208.237z"/>
		<path fill="#252525" d="M24.269,93.507c0,0-7.106,2.891-13.731,11.985c-6.625,9.094-8.311,12.708-8.311,12.708V91.76
			c0,0,6.926-5.601,16.201-4.818S24.269,93.507,24.269,93.507z"/>
		<circle cx="93.64" cy="184.127" r="1.873"/>
		<circle fill="#252525" cx="35.531" cy="81.739" r="20.219"/>
		<path fill="#999999" d="M63.168,65.058c-9.213-15.263-29.054-20.168-44.319-10.956C3.586,63.315-1.319,83.157,7.894,98.42
			c9.213,15.264,29.055,20.169,44.319,10.957C67.477,100.163,72.381,80.321,63.168,65.058z M51.412,105.323l-9.427-15.619
			c2.082-1.685,3.367-4.062,3.711-6.592l18.248-0.355C63.617,91.58,59.202,100.086,51.412,105.323z M59.874,67.046
			c2.408,3.988,3.712,8.33,4.017,12.678l-18.238,0.355c-0.205-1.252-0.64-2.489-1.336-3.643c-0.696-1.153-1.588-2.114-2.601-2.878
			l8.812-15.973C54.232,59.881,57.467,63.058,59.874,67.046z M47.868,56.125l-8.816,15.98c-2.399-0.875-5.102-0.845-7.561,0.213
			l-9.429-15.62C30.325,52.247,39.91,52.302,47.868,56.125z M19.473,58.278l9.438,15.636c-2.012,1.699-3.241,4.059-3.555,6.561
			L7.118,80.829C7.407,72.036,11.763,63.546,19.473,58.278z M11.188,96.432C8.8,92.476,7.499,88.173,7.179,83.861l18.251-0.354
			c0.212,1.215,0.639,2.415,1.314,3.535c0.676,1.12,1.539,2.056,2.516,2.811l-8.817,15.983
			C16.776,103.545,13.575,100.387,11.188,96.432z M23.098,107.304l8.811-15.973c2.36,0.889,5.02,0.9,7.46-0.088l9.438,15.635
			C40.555,111.247,31.013,111.145,23.098,107.304z"/>
		<circle cx="35.531" cy="81.739" r="1.201"/>
	</g>
</g>
</svg>
