<?xml version="1.0" encoding="utf-8"?>
<!-- Generator: Adobe Illustrator 16.0.0, SVG Export Plug-In . SVG Version: 6.00 Build 0)  -->
<!DOCTYPE svg PUBLIC "-//W3C//DTD SVG 1.1//EN" "http://www.w3.org/Graphics/SVG/1.1/DTD/svg11.dtd">
<svg version="1.1" id="레이어_1" xmlns="http://www.w3.org/2000/svg" xmlns:xlink="http://www.w3.org/1999/xlink" x="0px"
	 y="0px" width="150px" height="100px" viewBox="0 0 150 100" enable-background="new 0 0 150 100" xml:space="preserve">
<rect fill="#FFF79A" width="150" height="100"/>
<rect fill="#6DCFF6" width="150" height="24.46"/>
<circle fill="#FF5B00" cx="17.25" cy="36.917" r="2.25"/>
<circle fill="#FF5B00" cx="43.083" cy="23.483" r="2.25"/>
<circle fill="#FF5B00" cx="26.75" cy="54.583" r="2.25"/>
<circle fill="#FF5B00" cx="57.75" cy="44.583" r="2.25"/>
<circle fill="#FF5B00" cx="61.372" cy="8.8" r="3.083"/>
<circle fill="#FF5B00" cx="110.372" cy="18.167" r="3.083"/>
<circle fill="#FF5B00" cx="26.75" cy="9.98" r="2.25"/>
<circle fill="#FF5B00" cx="127.916" cy="71.861" r="2.25"/>
<circle fill="#FF5B00" cx="132.334" cy="90.363" r="2.25"/>
<circle fill="#FF5B00" cx="134.583" cy="15.917" r="2.25"/>
<circle fill="#FF5B00" cx="44.25" cy="75.583" r="2.417"/>
<circle fill="#FF5B00" cx="17.25" cy="88.583" r="2.917"/>
<circle fill="#FF5B00" cx="79.417" cy="70.249" r="1.613"/>
<circle fill="#FF5B00" cx="102.917" cy="77.196" r="1.613"/>
<circle fill="#FF5B00" cx="95" cy="44.583" r="1.613"/>
<circle fill="#FF5B00" cx="80.195" cy="22.847" r="1.613"/>
<circle fill="#FF5B00" cx="81.029" cy="54.583" r="2.447"/>
<circle fill="#FF5B00" cx="71.029" cy="85.666" r="2.447"/>
<circle fill="#FF5B00" cx="121.862" cy="38.167" r="2.447"/>
</svg>
