<?xml version="1.0" encoding="utf-8"?>
<!-- Generator: Adobe Illustrator 16.0.0, SVG Export Plug-In . SVG Version: 6.00 Build 0)  -->
<!DOCTYPE svg PUBLIC "-//W3C//DTD SVG 1.1//EN" "http://www.w3.org/Graphics/SVG/1.1/DTD/svg11.dtd">
<svg version="1.1" id="레이어_1" xmlns="http://www.w3.org/2000/svg" xmlns:xlink="http://www.w3.org/1999/xlink" x="0px"
	 y="0px" width="35.881px" height="67.024px" viewBox="0 0 35.881 67.024" enable-background="new 0 0 35.881 67.024"
	 xml:space="preserve">
<polyline fill="#FFFFFF" stroke="#666666" stroke-linecap="round" stroke-linejoin="round" stroke-miterlimit="10" points="0.5,0.5 
	0.5,66.524 17.941,59.276 "/>
<polyline fill="#FFFFFF" stroke="#666666" stroke-linecap="round" stroke-linejoin="round" stroke-miterlimit="10" points="
	35.381,0.5 35.381,66.524 17.941,59.276 "/>
<path fill="none" stroke="#5A5B9F" stroke-linecap="round" stroke-linejoin="round" stroke-miterlimit="10" d="M5.142,31.535
	l2.472-2.834c-0.693-0.745-1.05-0.958-2.148-0.958c-2.093,0-3.791,1.697-3.791,3.791s1.698,3.791,3.791,3.791
	c1.098,0,1.414-0.213,2.106-0.958L5.142,31.535z"/>
<line fill="#2E94FF" stroke="#5A5B9F" stroke-linecap="round" stroke-linejoin="round" stroke-miterlimit="10" x1="1.449" y1="22.222" x2="1.449" y2="40.722"/>
<polyline fill="none" stroke="#5A5B9F" stroke-linecap="round" stroke-linejoin="round" stroke-miterlimit="10" points="
	1.449,3.243 1.449,12.909 11.595,20.201 11.595,37.742 "/>
<line fill="none" stroke="#5A5B9F" stroke-linecap="round" stroke-linejoin="round" stroke-miterlimit="10" x1="5.97" y1="31.534" x2="11.345" y2="31.472"/>
<line fill="#2E94FF" stroke="#5A5B9F" stroke-linecap="round" stroke-linejoin="round" stroke-miterlimit="10" x1="2.303" y1="5.409" x2="2.303" y2="9.368"/>
<rect x="22.511" y="7.389" fill="#DA291C" width="5.125" height="27.937"/>
<polygon fill="#DA291C" points="30.125,34.889 25.074,43.639 20.022,34.889 "/>
</svg>
