<?xml version="1.0" encoding="utf-8"?>
<!-- Generator: Adobe Illustrator 16.0.0, SVG Export Plug-In . SVG Version: 6.00 Build 0)  -->
<!DOCTYPE svg PUBLIC "-//W3C//DTD SVG 1.1//EN" "http://www.w3.org/Graphics/SVG/1.1/DTD/svg11.dtd">
<svg version="1.1" id="레이어_1" xmlns="http://www.w3.org/2000/svg" xmlns:xlink="http://www.w3.org/1999/xlink" x="0px"
	 y="0px" width="100px" height="100px" viewBox="0 0 100 100" enable-background="new 0 0 100 100" xml:space="preserve">
<g>
	<ellipse fill="#DA291C" cx="50" cy="50.085" rx="20.572" ry="20.538"/>
</g>
<polygon fill="none" points="50,50 50,50 50,50 "/>
<rect x="50" y="50" fill="none" width="0" height="0"/>
<polygon fill="none" points="50,50 50,50 50,50 "/>
<g>
	<path fill="#E97F77" d="M23.17,76.83l-8.494,8.494c9.046,9.015,21.532,14.59,35.324,14.59V87.912
		C39.524,87.912,30.04,83.678,23.17,76.83z"/>
</g>
<g>
	<path fill="#E15449" d="M50,87.912v12.002c13.792,0,26.278-5.575,35.324-14.591l-8.493-8.493C69.96,83.678,60.476,87.912,50,87.912
		z"/>
</g>
<g>
	<path fill="#DA291C" d="M99.999,50H87.977c0,10.481-4.261,19.968-11.146,26.831l8.493,8.493C94.39,76.288,99.999,63.798,99.999,50z
		"/>
</g>
<g>
	<path fill="#E97F77" d="M76.83,23.169l8.493-8.494C76.277,5.661,63.791,0.085,50,0.085v12.002
		C60.475,12.087,69.959,16.322,76.83,23.169z"/>
</g>
<g>
	<path fill="#F0A9A4" d="M12.023,50H0.001c0,13.798,5.61,26.289,14.675,35.324l8.494-8.494C16.284,69.969,12.023,60.481,12.023,50z"
		/>
</g>
<g>
	<path fill="#F0A9A4" d="M87.977,50L87.977,50h12.022l0,0c0-13.798-5.609-26.289-14.676-35.324l-8.493,8.494
		C83.716,30.032,87.977,39.519,87.977,50z"/>
</g>
<g>
	<path fill="#E15449" d="M50,12.087V0.085c-13.792,0-26.279,5.576-35.325,14.591l8.494,8.494C30.04,16.322,39.524,12.087,50,12.087z
		"/>
</g>
<g>
	<path fill="#DA291C" d="M12.023,50c0-10.48,4.26-19.967,11.146-26.83l-8.494-8.494C5.61,23.711,0.001,36.201,0.001,50
		c0,0,0,0,0,0.001L12.023,50C12.023,50,12.023,50,12.023,50z"/>
</g>
<g>
</g>
<g>
</g>
<g>
</g>
<g>
</g>
<g>
</g>
<g>
</g>
</svg>
