<?xml version="1.0" encoding="utf-8"?>
<!-- Generator: Adobe Illustrator 16.0.0, SVG Export Plug-In . SVG Version: 6.00 Build 0)  -->
<!DOCTYPE svg PUBLIC "-//W3C//DTD SVG 1.1//EN" "http://www.w3.org/Graphics/SVG/1.1/DTD/svg11.dtd">
<svg version="1.1" id="레이어_1" xmlns="http://www.w3.org/2000/svg" xmlns:xlink="http://www.w3.org/1999/xlink" x="0px"
	 y="0px" width="150px" height="100px" viewBox="0 0 150 100" enable-background="new 0 0 150 100" xml:space="preserve">
<rect fill="#FFF79A" width="150" height="100"/>
<rect fill="#6DCFF6" width="150" height="24.46"/>
<circle fill="#FF5B00" cx="17.25" cy="36.917" r="2.25"/>
<circle fill="#FF5B00" cx="43.083" cy="23.483" r="2.25"/>
<circle fill="#FF5B00" cx="26.75" cy="54.583" r="2.25"/>
<circle fill="#FF5B00" cx="57.75" cy="44.583" r="2.25"/>
<circle fill="#FF5B00" cx="63.083" cy="65.552" r="3.083"/>
<circle fill="#FF5B00" cx="113.455" cy="62.469" r="3.083"/>
<circle fill="#FF5B00" cx="43.083" cy="46.197" r="2.25"/>
<circle fill="#FF5B00" cx="127.916" cy="71.861" r="2.25"/>
<circle fill="#FF5B00" cx="132.334" cy="90.363" r="2.25"/>
<circle fill="#FF5B00" cx="136.834" cy="34.667" r="2.25"/>
<circle fill="#FF5B00" cx="44.25" cy="75.583" r="2.417"/>
<circle fill="#FF5B00" cx="17.25" cy="88.583" r="2.917"/>
<circle fill="#FF5B00" cx="79.417" cy="70.249" r="1.613"/>
<circle fill="#FF5B00" cx="102.917" cy="77.196" r="1.613"/>
<circle fill="#FF5B00" cx="95" cy="44.583" r="1.613"/>
<circle fill="#FF5B00" cx="95" cy="29.347" r="1.613"/>
<circle fill="#FF5B00" cx="81.029" cy="54.583" r="2.447"/>
<circle fill="#FF5B00" cx="71.029" cy="85.666" r="2.447"/>
<circle fill="#FF5B00" cx="121.862" cy="38.167" r="2.447"/>
<polyline fill="none" stroke="#008CFF" stroke-width="2" stroke-linecap="round" stroke-linejoin="round" stroke-miterlimit="10" points="
	41.429,38.09 65.845,17.376 76.678,30.309 76.678,25.31 "/>
<polyline fill="none" stroke="#008CFF" stroke-width="2" stroke-linecap="round" stroke-linejoin="round" stroke-miterlimit="10" points="
	56.638,38.09 81.055,17.376 91.887,30.309 91.887,25.31 "/>
<polyline fill="none" stroke="#008CFF" stroke-width="2" stroke-linecap="round" stroke-linejoin="round" stroke-miterlimit="10" points="
	70.275,38.09 94.691,17.376 105.523,30.309 105.523,25.31 "/>
</svg>
