<?xml version="1.0" encoding="utf-8"?>
<!-- Generator: Adobe Illustrator 16.0.0, SVG Export Plug-In . SVG Version: 6.00 Build 0)  -->
<!DOCTYPE svg PUBLIC "-//W3C//DTD SVG 1.1//EN" "http://www.w3.org/Graphics/SVG/1.1/DTD/svg11.dtd">
<svg version="1.1" id="Layer_1" xmlns="http://www.w3.org/2000/svg" xmlns:xlink="http://www.w3.org/1999/xlink" x="0px" y="0px"
	 width="111.83px" height="129.131px" viewBox="0 0 111.83 129.131" enable-background="new 0 0 111.83 129.131"
	 xml:space="preserve">
<rect fill="#88B04B" width="111.83" height="129.131"/>
<g>
	<path fill="#FFFFFF" d="M57.3,65.108c-0.455-2.743-1.486-5.292-2.992-7.493l2.533-2.531l-4.554-4.553l-2.473,2.478
		c-2.199-1.603-4.753-2.743-7.53-3.266v-3.468h-6.437v3.378c-2.842,0.444-5.475,1.508-7.745,3.077l-2.362-2.362l-4.551,4.551
		l2.325,2.326c-1.626,2.258-2.758,4.889-3.251,7.742l-3.317,0.002v6.436h3.317c0.49,2.836,1.612,5.451,3.222,7.702l-2.42,2.419
		l4.552,4.551l2.443-2.447c2.247,1.563,4.851,2.635,7.663,3.095v3.61l6.437-0.002l-0.002-3.662c2.748-0.502,5.284-1.596,7.475-3.149
		l2.682,2.687l4.553-4.558l-2.695-2.688c1.529-2.188,2.602-4.707,3.092-7.436h3.762v-6.438H57.3z M38.988,81.56
		c-7.317,0-13.247-5.929-13.247-13.244c0-7.314,5.93-13.247,13.247-13.247c7.315,0,13.245,5.929,13.245,13.247
		C52.232,75.631,46.303,81.56,38.988,81.56z"/>
	<path fill="#FFFFFF" d="M80.536,47.941c-0.262-1.577-0.854-3.043-1.721-4.312l1.455-1.453l-2.617-2.62l-1.422,1.423
		c-1.271-0.921-2.733-1.577-4.332-1.876v-1.995h-3.701v1.942c-1.635,0.256-3.15,0.869-4.455,1.77l-1.358-1.358l-2.616,2.618
		l1.336,1.337c-0.935,1.301-1.588,2.814-1.869,4.453l-1.905,0.002v3.701h1.905c0.281,1.632,0.929,3.136,1.854,4.43l-1.394,1.392
		l2.619,2.615l1.404-1.406c1.29,0.899,2.788,1.513,4.405,1.779v2.078l3.703-0.002v-2.105c1.578-0.288,3.038-0.917,4.297-1.813
		l1.542,1.543l2.62-2.62l-1.55-1.548c0.879-1.255,1.494-2.707,1.775-4.274h2.164v-3.704L80.536,47.941z M70.003,57.402
		c-4.208,0-7.619-3.411-7.619-7.617c0-4.208,3.411-7.619,7.619-7.619c4.207,0,7.617,3.411,7.617,7.619
		C77.621,53.991,74.21,57.402,70.003,57.402z"/>
	<path fill="#FFFFFF" d="M63.962,96.707h2.967V88.22c0,0,11.543,3.905,15.75-15.602c0,0-13.193-3.805-17.563,11.604
		c0,0-1.486-11.701-18.306-9.555c0,0,0.884,13.908,17.128,14.298L63.962,96.707z"/>
</g>
</svg>
