<?xml version="1.0" encoding="utf-8"?>
<!-- Generator: Adobe Illustrator 16.0.0, SVG Export Plug-In . SVG Version: 6.00 Build 0)  -->
<!DOCTYPE svg PUBLIC "-//W3C//DTD SVG 1.1//EN" "http://www.w3.org/Graphics/SVG/1.1/DTD/svg11.dtd">
<svg version="1.1" id="Layer_1" xmlns="http://www.w3.org/2000/svg" xmlns:xlink="http://www.w3.org/1999/xlink" x="0px" y="0px"
	 width="47.773px" height="55.166px" viewBox="0 0 47.773 55.166" enable-background="new 0 0 47.773 55.166" xml:space="preserve">
<rect x="0" fill="#5A5C9F" width="47.773" height="55.166"/>
<g>
	<g>
		<g>
			<path fill="#FFFFFF" d="M23.887,11.052c0.666,0,1.234,0.391,1.512,0.951c0.618,0.06,1.225,0.158,1.815,0.287
				c-0.222-1.649-1.617-2.926-3.327-2.926c-1.713,0-3.108,1.276-3.33,2.926c0.595-0.129,1.198-0.228,1.815-0.287
				C22.649,11.443,23.221,11.052,23.887,11.052z"/>
			<path fill="#FFFFFF" d="M12.418,27.583c0-1.288-0.729-2.395-1.791-2.963c1.144-5.125,5.171-9.155,10.296-10.296
				c0.569,1.061,1.678,1.791,2.966,1.791c1.285,0,2.396-0.729,2.963-1.791c-0.001,0-0.001,0-0.002,0
				c0.255-0.475,0.409-1.008,0.409-1.583c0-0.153-0.022-0.301-0.045-0.449c-0.595-0.129-1.197-0.228-1.815-0.287
				c0.109,0.223,0.177,0.471,0.177,0.736c0,0.528-0.248,0.994-0.629,1.304c0.001,0,0.001,0,0.002,0
				c-0.29,0.236-0.655,0.384-1.06,0.384c-0.405,0-0.771-0.146-1.063-0.384c0,0,0,0,0.001,0c-0.381-0.31-0.628-0.775-0.628-1.304
				c0-0.265,0.065-0.513,0.176-0.736c-0.617,0.06-1.225,0.158-1.815,0.287C14.586,13.587,9.89,18.284,8.594,24.256
				c-0.005,0.022-0.008,0.045-0.013,0.068c0.005-0.022,0.006-0.046,0.011-0.069c-1.646,0.222-2.926,1.619-2.926,3.329
				c0,1.709,1.275,3.106,2.926,3.33c-0.129-0.597-0.228-1.201-0.284-1.817c-0.563-0.275-0.951-0.846-0.951-1.513
				c0-0.666,0.391-1.237,0.951-1.512c0.002-0.024,0.009-0.046,0.011-0.07c-0.002,0.024-0.006,0.047-0.009,0.071
				c0.222-0.11,0.469-0.176,0.733-0.176c0.527,0,0.994,0.248,1.307,0.628c0,0,0,0,0-0.001c0.233,0.291,0.384,0.656,0.384,1.06
				s-0.146,0.771-0.384,1.062c0.05,0.646,0.142,1.283,0.277,1.901C11.688,29.978,12.418,28.871,12.418,27.583z M22.541,14.076
				c-0.391,0.038-0.774,0.093-1.156,0.164C21.765,14.169,22.15,14.114,22.541,14.076z M9.043,24.209
				c0.575-0.001,1.109,0.158,1.584,0.412l0,0C10.151,24.367,9.618,24.209,9.043,24.209z"/>
			<path fill="#FFFFFF" d="M42.105,27.583c0-1.71-1.275-3.107-2.926-3.329c0.129,0.595,0.229,1.2,0.284,1.817
				c0.563,0.274,0.951,0.846,0.951,1.512c0,0.667-0.391,1.236-0.951,1.511c0,0.001,0,0.003,0,0.003
				c-0.222,0.107-0.469,0.174-0.733,0.174c-0.527,0-0.993-0.248-1.306-0.625v-0.002c-0.233-0.291-0.384-0.657-0.384-1.061
				s0.148-0.768,0.384-1.059c0,0,0,0,0-0.001c0.313-0.379,0.774-0.627,1.306-0.627c0.267,0,0.514,0.066,0.733,0.176
				c-0.06-0.617-0.155-1.223-0.284-1.817c-1.297-5.972-5.992-10.669-11.965-11.964c0.021,0.148,0.048,0.296,0.048,0.449
				c0,0.576-0.158,1.109-0.412,1.584c5.125,1.141,9.153,5.171,10.296,10.297l0,0c-1.063,0.568-1.79,1.675-1.79,2.962
				c0,1.288,0.729,2.393,1.79,2.962l0,0l0,0c-1.144,5.126-5.171,9.156-10.296,10.297c0.255,0.476,0.412,1.011,0.412,1.584
				c0-0.573-0.158-1.108-0.412-1.584c-0.569-1.061-1.677-1.791-2.963-1.791c-1.288,0-2.396,0.73-2.966,1.791
				c-5.125-1.142-9.152-5.171-10.296-10.297c-0.14-0.619-0.229-1.255-0.277-1.901c-0.313,0.379-0.775,0.627-1.307,0.627
				c-0.267,0-0.514-0.064-0.733-0.178c0.061,0.617,0.155,1.225,0.284,1.818c0.148,0.021,0.298,0.045,0.449,0.045
				c0.288,0.001,0.565-0.039,0.83-0.109c-0.265,0.07-0.542,0.11-0.83,0.11c-0.151,0-0.301-0.024-0.449-0.045
				c1.297,5.971,5.992,10.669,11.966,11.963c0.001,0,0.003,0.001,0.005,0.001c-0.002-0.001-0.004-0.001-0.006-0.001
				c0.223,1.647,1.617,2.926,3.33,2.926c1.71,0,3.104-1.274,3.327-2.926c-0.595,0.129-1.197,0.229-1.815,0.287
				c-0.275,0.563-0.846,0.95-1.512,0.95s-1.237-0.391-1.515-0.95c-0.001,0-0.003-0.001-0.004-0.001
				c0.001,0.001,0.003,0.001,0.005,0.001c-0.107-0.226-0.176-0.472-0.176-0.736c0-0.526,0.247-0.993,0.628-1.304c0,0,0,0-0.001,0
				c0.291-0.234,0.655-0.385,1.063-0.385c0.402,0,0.77,0.146,1.06,0.385c0.381,0.311,0.629,0.773,0.629,1.304
				c0,0.267-0.066,0.515-0.177,0.736c0.618-0.062,1.225-0.158,1.815-0.287c5.973-1.294,10.667-5.992,11.965-11.962l0,0
				c0-0.001,0-0.001,0-0.002C40.829,30.69,42.105,29.293,42.105,27.583z M37.331,25.669c-0.01-0.071-0.021-0.141-0.031-0.211
				C37.31,25.528,37.321,25.598,37.331,25.669z M20.513,42.427c-0.001-0.574,0.154-1.109,0.409-1.584l0,0
				C20.669,41.317,20.513,41.853,20.513,42.427z"/>
		</g>
		<path fill="#FFFFFF" d="M28.324,23.865c0,2.451-1.986,8.041-4.438,8.041c-2.451,0-4.438-5.589-4.438-8.041
			c0-2.45,1.985-4.438,4.438-4.438C26.339,19.427,28.324,21.415,28.324,23.865z"/>
		<path fill="#FFFFFF" d="M25.974,33.946c0-0.62-0.419-1.125-0.938-1.125h-2.301c-0.521,0-0.938,0.505-0.938,1.125
			c0,0.541,0.325,0.973,0.75,1.08c-0.057,0.168-0.098,0.352-0.098,0.56c0,0.621,0.288,1.125,0.645,1.125h1.581
			c0.356,0,0.646-0.504,0.646-1.125c0-0.208-0.041-0.392-0.098-0.56C25.648,34.919,25.974,34.487,25.974,33.946z"/>
	</g>
</g>
</svg>
