<?xml version="1.0" encoding="utf-8"?>
<!-- Generator: Adobe Illustrator 16.0.0, SVG Export Plug-In . SVG Version: 6.00 Build 0)  -->
<!DOCTYPE svg PUBLIC "-//W3C//DTD SVG 1.1//EN" "http://www.w3.org/Graphics/SVG/1.1/DTD/svg11.dtd">
<svg version="1.1" id="Layer_1" xmlns="http://www.w3.org/2000/svg" xmlns:xlink="http://www.w3.org/1999/xlink" x="0px" y="0px"
	 width="47.773px" height="55.166px" viewBox="0 0 47.773 55.166" enable-background="new 0 0 47.773 55.166" xml:space="preserve">
<rect x="0" fill="#5A5C9F" width="47.773" height="55.166"/>
<g>
	<g enable-background="new    ">
		<path fill="#FFFFFF" d="M19.421,33.397c0,1.134-0.896,2.054-2,2.054h-2.875c-1.104,0-2-0.92-2-2.054v-8.468
			c0-1.135,0.896-2.054,2-2.054h2.875c1.104,0,2,0.919,2,2.054V33.397z"/>
		<path fill="#FFFFFF" d="M32.556,33.58c-0.854,1.683-1.726,1.871-2.826,1.871h-7.122c-1.104,0-2-0.92-2-2.054v-8.468
			c0-1.135,0.896-2.054,2-2.054h10.521c1.104,0,2.481,0.669,2,2.455C34.648,27.116,33.412,31.897,32.556,33.58z"/>
		<path fill="#FFFFFF" d="M22.608,22.875c0,0,1.823-0.07,2.262-2.12c0.438-2.05,0.969-4.269,2.28-2.831
			c1.313,1.438,2.656,3.063,0.969,5.625C26.432,26.112,22.608,22.875,22.608,22.875z"/>
	</g>
</g>
</svg>
