<?xml version="1.0" encoding="utf-8"?>
<!-- Generator: Adobe Illustrator 16.0.0, SVG Export Plug-In . SVG Version: 6.00 Build 0)  -->
<!DOCTYPE svg PUBLIC "-//W3C//DTD SVG 1.1//EN" "http://www.w3.org/Graphics/SVG/1.1/DTD/svg11.dtd">
<svg version="1.1" id="Layer_1" xmlns="http://www.w3.org/2000/svg" xmlns:xlink="http://www.w3.org/1999/xlink" x="0px" y="0px"
	 width="47.773px" height="55.166px" viewBox="0 0 47.773 55.166" enable-background="new 0 0 47.773 55.166" xml:space="preserve">
<rect x="0" fill="#5A5C9F" width="47.773" height="55.166"/>
<g>
	<g enable-background="new    ">
		<polygon fill="#FFFFFF" points="35.396,35.339 12.292,35.339 12.292,36.868 19.39,36.868 16.76,41.312 19.242,41.312 
			21.871,36.868 25.807,36.868 28.434,41.312 30.917,41.312 28.287,36.868 35.396,36.868 		"/>
		<path fill="#FFFFFF" d="M14.49,19.583v14.875h18.708V19.583H14.49z M19.385,30.617c-1.853,0-3.353-1.502-3.353-3.352
			c0-1.852,1.5-3.354,3.353-3.354v3.354h3.354C22.737,29.115,21.236,30.617,19.385,30.617z M19.903,26.778v-3.353
			c1.853,0,3.354,1.502,3.354,3.353H19.903z M31.99,30.628h-7.084v-1.333h7.084V30.628z M31.99,27.942h-7.084v-1.333h7.084V27.942z
			 M31.99,25.112h-7.084v-1.333h7.084V25.112z"/>
		<path fill="#FFFFFF" d="M34.877,16.542H26.47v-0.688h-5.23v0.688h-8.347c-0.407,0-0.736,0.503-0.736,1.125
			s0.329,1.125,0.736,1.125h21.98c0.407,0,0.736-0.503,0.736-1.125S35.285,16.542,34.877,16.542z"/>
	</g>
</g>
</svg>
