<?xml version="1.0" encoding="utf-8"?>
<!-- Generator: Adobe Illustrator 16.0.0, SVG Export Plug-In . SVG Version: 6.00 Build 0)  -->
<!DOCTYPE svg PUBLIC "-//W3C//DTD SVG 1.1//EN" "http://www.w3.org/Graphics/SVG/1.1/DTD/svg11.dtd">
<svg version="1.1" id="Layer_1" xmlns="http://www.w3.org/2000/svg" xmlns:xlink="http://www.w3.org/1999/xlink" x="0px" y="0px"
	 width="47.773px" height="55.166px" viewBox="0 0 47.773 55.166" enable-background="new 0 0 47.773 55.166" xml:space="preserve">
<rect x="0" fill="#E15449" width="47.773" height="55.166"/>
<g id="Layer_3">
</g>
<g>
	<path fill="#FFFFFF" d="M31.403,16.094c-3.289,0-7.126,2.674-7.126,3.698v0.012h-1.37v-0.012c0-1.024-3.837-3.698-7.127-3.698
		s-7.127,2.674-7.127,3.698v16.695c0,1.025,0.896,1.854,2,1.854c0,0,2.729-1.006,5.127-1.006c3.123,0,5.127,1.006,5.127,1.006
		c0.61,0,1.149-0.259,1.516-0.657c0.12,0.092,0.264,0.153,0.426,0.153h1.521c0.153,0,0.287-0.06,0.404-0.142
		c0.367,0.393,0.899,0.646,1.504,0.646c0,0,2.004-1.006,5.126-1.006c2.396,0,5.127,1.006,5.127,1.006c1.104,0,2-0.829,2-1.854
		V19.792C38.53,18.768,34.693,16.094,31.403,16.094z M24.277,21.24v15.163h-1.37V21.24H24.277z"/>
</g>
</svg>
