<?xml version="1.0" encoding="utf-8"?>
<!-- Generator: Adobe Illustrator 16.0.0, SVG Export Plug-In . SVG Version: 6.00 Build 0)  -->
<!DOCTYPE svg PUBLIC "-//W3C//DTD SVG 1.1//EN" "http://www.w3.org/Graphics/SVG/1.1/DTD/svg11.dtd">
<svg version="1.1" id="Layer_1" xmlns="http://www.w3.org/2000/svg" xmlns:xlink="http://www.w3.org/1999/xlink" x="0px" y="0px"
	 width="47.773px" height="55.166px" viewBox="0 0 47.773 55.166" enable-background="new 0 0 47.773 55.166" xml:space="preserve">
<rect x="0" fill="#E15449" width="47.773" height="55.166"/>
<g id="Layer_3">
</g>
<g>
	<g>
		<path fill="#FFFFFF" d="M19.522,22.494c-3.594-1.422-4.859,1.938-4.859,1.938s-2.047-3.141-4.857-1.938
			c-3.968,1.697-3.125,5.766-1.221,8.063c1.906,2.297,6.078,5.594,6.078,5.594s4.172-3.297,6.078-5.594
			C22.647,28.26,22.938,23.846,19.522,22.494z M16.733,30.062h-1.459v1.459h-1.416v-1.459h-1.459v-1.416h1.459v-1.458h1.416v1.458
			h1.459V30.062z"/>
		<polygon fill="#FFFFFF" points="24.436,39.188 23.184,33.021 22.143,33.021 20.354,43.338 18.544,36.431 18.554,36.416 
			18.54,36.416 17.513,36.416 17.499,36.416 17.503,36.431 15.484,39.188 8.147,39.188 8.147,40.229 14.723,40.229 15.764,40.229 
			15.772,40.229 15.772,40.217 17.777,37.478 19.938,45.729 20.979,45.729 22.704,35.786 23.605,40.229 23.688,40.229 
			24.646,40.229 26.605,40.229 26.605,39.188 		"/>
		<path fill="#FFFFFF" d="M32.502,28.647l7.651-9.007c0.563-0.664,0.563-1.741,0-2.405l-3.314-3.902
			c0.002-0.029,0.019-0.053,0.019-0.083c0-0.617-0.478-1.107-1.077-1.166c-0.038-0.004-0.071-0.022-0.11-0.022
			c-0.4,0-0.739,0.213-0.956,0.521c-0.135,0.193-0.229,0.415-0.229,0.667c0,0.655,0.532,1.188,1.188,1.188
			c0.188,0,0.355-0.051,0.514-0.127l2.633,3.1c0.477,0.562,0.477,1.472,0,2.034l-6.468,7.617c-0.479,0.562-1.251,0.562-1.729,0
			l-6.468-7.617c-0.479-0.562-0.479-1.472,0-2.034l2.633-3.1c0.156,0.076,0.326,0.127,0.512,0.127c0.656,0,1.188-0.532,1.188-1.188
			c0-0.253-0.097-0.475-0.231-0.667c-0.215-0.307-0.553-0.521-0.956-0.521c-0.039,0-0.07,0.019-0.108,0.022
			c-0.603,0.059-1.077,0.548-1.077,1.166c0,0.029,0.015,0.054,0.017,0.083l-3.313,3.902c-0.563,0.664-0.563,1.741,0,2.405
			l7.649,9.007c0.131,0.152,0.28,0.269,0.439,0.351v7.437c-1.378,0.271-2.418,1.482-2.418,2.94c0,1.656,1.344,3,3,3
			c1.658,0,3-1.344,3-3c0-1.457-1.038-2.67-2.416-2.94v-7.438C32.223,28.914,32.372,28.801,32.502,28.647z"/>
	</g>
</g>
</svg>
