<?xml version="1.0" encoding="utf-8"?>
<!-- Generator: Adobe Illustrator 16.0.0, SVG Export Plug-In . SVG Version: 6.00 Build 0)  -->
<!DOCTYPE svg PUBLIC "-//W3C//DTD SVG 1.1//EN" "http://www.w3.org/Graphics/SVG/1.1/DTD/svg11.dtd">
<svg version="1.1" id="Layer_1" xmlns="http://www.w3.org/2000/svg" xmlns:xlink="http://www.w3.org/1999/xlink" x="0px" y="0px"
	 width="47.773px" height="55.166px" viewBox="0 0 47.773 55.166" enable-background="new 0 0 47.773 55.166" xml:space="preserve">
<rect x="0" fill="#E15449" width="47.773" height="55.166"/>
<g id="Layer_3">
</g>
<g>
	<g>
		<g>
			<path fill="#FFFFFF" d="M41.332,29.09l-1.268-1.364c-1.051-1.129-2.647-1.349-3.568-0.492l-4.083,3.799l5.021,5.5l4.137-3.849
				C42.488,31.827,42.382,30.219,41.332,29.09z"/>
			<path fill="#FFFFFF" d="M27.851,35.245c-0.921,0.855-0.813,2.465,0.234,3.594l1.27,1.364c1.051,1.129,2.646,1.349,3.566,0.491
				l4.024-3.744l-5.02-5.5L27.851,35.245z"/>
		</g>
		<path fill="#FFFFFF" d="M30.092,19.644h-4.686v-2.751c0-0.455-0.372-0.822-0.832-0.822h-7.712c-0.46,0-0.832,0.367-0.832,0.822
			v2.751h-4.688c-1.115,0-2.021,0.896-2.021,2v13.375c0,1.104,0.905,2,2.021,2h15.091c-0.201-0.815-0.027-1.639,0.545-2.17
			l5.136-4.779v-8.424C32.114,20.539,31.209,19.644,30.092,19.644z M17.89,17.983c0-0.274,0.225-0.496,0.502-0.496h4.651
			c0.277,0,0.502,0.222,0.502,0.496v1.66H17.89V17.983z M25.442,30.493h-2.828v2.828h-3.219v-2.828h-2.828v-3.219h2.828v-2.828
			h3.219v2.828h2.828V30.493z"/>
	</g>
</g>
</svg>
