<?xml version="1.0" encoding="utf-8"?>
<!-- Generator: Adobe Illustrator 16.0.0, SVG Export Plug-In . SVG Version: 6.00 Build 0)  -->
<!DOCTYPE svg PUBLIC "-//W3C//DTD SVG 1.1//EN" "http://www.w3.org/Graphics/SVG/1.1/DTD/svg11.dtd">
<svg version="1.1" id="Layer_1" xmlns="http://www.w3.org/2000/svg" xmlns:xlink="http://www.w3.org/1999/xlink" x="0px" y="0px"
	 width="75.094px" height="24.913px" viewBox="0 0 75.094 24.913" enable-background="new 0 0 75.094 24.913" xml:space="preserve">
<g>
	<path fill="#FFFFFF" d="M69.01,1c0.081,0,0.139,0.009,0.173,0.018l4.825,11.438c-0.812,1.923-4.267,10.103-4.833,11.455
		c-0.032,0.001-0.071,0.002-0.118,0.002H67.12l4.669-11.067l0.164-0.389l-0.164-0.389c0,0-3.395-8.049-4.668-11.067L69.01,1
		 M69.01,0c-0.309,0-2.063,0-2.922,0c-0.287,0-0.438,0.089-0.361,0.268c0.076,0.18,5.142,12.188,5.142,12.188
		s-4.986,11.819-5.112,12.118s0.093,0.338,0.441,0.338c0.892,0,2.522,0,2.859,0c0.469,0,0.813-0.06,0.97-0.446
		c0.157-0.386,5.067-12.01,5.067-12.01S70.27,1.021,70.08,0.572S69.421,0,69.01,0L69.01,0z"/>
</g>
<g>
	<path fill="#FFFFFF" d="M59.624,1c0.081,0,0.138,0.009,0.173,0.018l4.825,11.438c-0.812,1.923-4.267,10.103-4.833,11.455
		c-0.032,0.001-0.071,0.002-0.118,0.002h-1.936l4.669-11.067l0.164-0.389l-0.164-0.389c0,0-3.396-8.049-4.669-11.067L59.624,1
		 M59.623,0c-0.309,0-2.063,0-2.922,0c-0.287,0-0.438,0.089-0.361,0.268c0.076,0.18,5.142,12.188,5.142,12.188
		s-4.986,11.819-5.112,12.118s0.093,0.338,0.441,0.338c0.892,0,2.522,0,2.859,0c0.469,0,0.813-0.06,0.97-0.446
		c0.157-0.386,5.067-12.01,5.067-12.01S60.883,1.021,60.693,0.572S60.034,0,59.623,0L59.623,0z"/>
</g>
<g>
	<path fill="#FFFFFF" d="M50.237,1c0.081,0,0.138,0.009,0.173,0.018l4.825,11.438c-0.812,1.923-4.267,10.103-4.833,11.455
		c-0.032,0.001-0.071,0.002-0.118,0.002h-1.936l4.669-11.067l0.164-0.389l-0.164-0.389c0,0-3.396-8.049-4.669-11.067L50.237,1
		 M50.236,0c-0.309,0-2.063,0-2.922,0c-0.287,0-0.438,0.089-0.361,0.268c0.076,0.18,5.142,12.188,5.142,12.188
		s-4.986,11.819-5.112,12.118s0.093,0.338,0.441,0.338c0.892,0,2.522,0,2.859,0c0.469,0,0.813-0.06,0.97-0.446
		c0.157-0.386,5.067-12.01,5.067-12.01S51.496,1.021,51.307,0.572S50.647,0,50.236,0L50.236,0z"/>
</g>
<g>
	<path fill="#FFFFFF" d="M40.85,1c0.081,0,0.138,0.009,0.173,0.018l4.825,11.438c-0.812,1.923-4.267,10.103-4.833,11.455
		c-0.032,0.001-0.071,0.002-0.118,0.002H38.96l4.669-11.067l0.164-0.389l-0.164-0.389c0,0-3.396-8.049-4.669-11.067L40.85,1
		 M40.85,0c-0.309,0-2.063,0-2.922,0c-0.287,0-0.438,0.089-0.361,0.268c0.076,0.18,5.142,12.188,5.142,12.188
		s-4.986,11.819-5.112,12.118s0.093,0.338,0.441,0.338c0.892,0,2.522,0,2.859,0c0.469,0,0.813-0.06,0.97-0.446
		c0.157-0.386,5.067-12.01,5.067-12.01S42.109,1.021,41.92,0.572S41.261,0,40.85,0L40.85,0z"/>
</g>
<g>
	<path fill="#FFFFFF" d="M31.463,1c0.081,0,0.138,0.009,0.173,0.018l4.825,11.438c-0.812,1.923-4.267,10.103-4.833,11.455
		c-0.032,0.001-0.071,0.002-0.118,0.002h-1.936l4.669-11.067l0.164-0.389l-0.164-0.389c0,0-3.396-8.049-4.669-11.067L31.463,1
		 M31.463,0c-0.309,0-2.063,0-2.922,0c-0.287,0-0.438,0.089-0.361,0.268c0.076,0.18,5.142,12.188,5.142,12.188
		s-4.986,11.819-5.112,12.118s0.093,0.338,0.441,0.338c0.892,0,2.522,0,2.859,0c0.469,0,0.813-0.06,0.97-0.446
		c0.157-0.386,5.067-12.01,5.067-12.01S32.723,1.021,32.533,0.572S31.874,0,31.463,0L31.463,0z"/>
</g>
<g>
	<path fill="#FFFFFF" d="M22.077,1c0.081,0,0.138,0.009,0.173,0.018l4.825,11.438c-0.812,1.923-4.267,10.103-4.833,11.455
		c-0.032,0.001-0.071,0.002-0.118,0.002h-1.936l4.669-11.067l0.164-0.389l-0.164-0.389c0,0-3.396-8.049-4.669-11.067L22.077,1
		 M22.076,0c-0.309,0-2.063,0-2.922,0c-0.287,0-0.438,0.089-0.361,0.268c0.076,0.18,5.142,12.188,5.142,12.188
		s-4.986,11.819-5.112,12.118s0.093,0.338,0.441,0.338c0.892,0,2.522,0,2.859,0c0.469,0,0.813-0.06,0.97-0.446
		c0.157-0.386,5.067-12.01,5.067-12.01S23.336,1.021,23.146,0.572S22.487,0,22.076,0L22.076,0z"/>
</g>
<g>
	<path fill="#FFFFFF" d="M12.69,1c0.081,0,0.138,0.009,0.173,0.018l4.825,11.438c-0.812,1.923-4.267,10.103-4.833,11.455
		c-0.032,0.001-0.071,0.002-0.118,0.002H10.8l4.669-11.067l0.164-0.389l-0.164-0.389c0,0-3.396-8.049-4.669-11.067L12.69,1
		 M12.689,0c-0.309,0-2.063,0-2.922,0C9.48,0,9.33,0.089,9.406,0.269c0.076,0.18,5.142,12.188,5.142,12.188
		S9.562,24.276,9.436,24.575s0.093,0.338,0.441,0.338c0.892,0,2.522,0,2.859,0c0.469,0,0.813-0.06,0.97-0.446
		c0.157-0.386,5.067-12.01,5.067-12.01S13.949,1.021,13.76,0.572S13.101,0,12.689,0L12.689,0z"/>
</g>
<g>
	<path fill="#FFFFFF" d="M3.303,1c0.081,0,0.138,0.009,0.173,0.018l4.825,11.438c-0.812,1.923-4.267,10.103-4.833,11.455
		c-0.032,0.001-0.071,0.002-0.118,0.002H1.414l4.669-11.067l0.164-0.389l-0.164-0.389c0,0-3.396-8.049-4.669-11.067L3.303,1
		 M3.303,0C2.994,0,1.24,0,0.381,0C0.094,0-0.057,0.089,0.02,0.269c0.076,0.18,5.142,12.188,5.142,12.188S0.175,24.276,0.049,24.575
		s0.093,0.338,0.441,0.338c0.892,0,2.522,0,2.859,0c0.469,0,0.813-0.06,0.97-0.446c0.157-0.386,5.067-12.01,5.067-12.01
		S4.563,1.021,4.373,0.572S3.714,0,3.303,0L3.303,0z"/>
</g>
</svg>
