<?xml version="1.0" encoding="utf-8"?>
<!-- Generator: Adobe Illustrator 16.0.0, SVG Export Plug-In . SVG Version: 6.00 Build 0)  -->
<!DOCTYPE svg PUBLIC "-//W3C//DTD SVG 1.1//EN" "http://www.w3.org/Graphics/SVG/1.1/DTD/svg11.dtd">
<svg version="1.1" id="Layer_1" xmlns="http://www.w3.org/2000/svg" xmlns:xlink="http://www.w3.org/1999/xlink" x="0px" y="0px"
	 width="652px" height="454px" viewBox="0 0 652 454" enable-background="new 0 0 652 454" xml:space="preserve">
<rect x="317.955" y="224.879" transform="matrix(-0.7071 0.7071 -0.7071 -0.7071 721.2198 167.1115)" fill="#FFFFFF" width="16.091" height="16.093"/>
<g enable-background="new    ">
	<path fill="#FFFFFF" d="M107.181,252.726c0,4.204-3.319,7.612-7.414,7.612H89.109c-4.091,0-7.414-3.408-7.414-7.612v-31.393
		c0-4.209,3.323-7.616,7.414-7.616h10.658c4.095,0,7.414,3.407,7.414,7.616V252.726z"/>
	<path fill="#FFFFFF" d="M155.877,253.403c-3.167,6.236-6.397,6.935-10.477,6.935h-26.403c-4.094,0-7.414-3.408-7.414-7.612v-31.393
		c0-4.209,3.32-7.616,7.414-7.616h39.002c4.095,0,9.199,2.48,7.414,9.101C163.633,229.44,159.048,247.165,155.877,253.403z"/>
	<path fill="#FFFFFF" d="M118.998,213.717c0,0,6.76-0.259,8.386-7.859c1.625-7.599,3.591-15.826,8.454-10.495
		c4.865,5.33,9.847,11.354,3.591,20.852C133.175,225.717,118.998,213.717,118.998,213.717z"/>
</g>
<g>
	<g>
		<path fill="#FFFFFF" d="M326.005,44.662c1.986,0,3.682,1.167,4.509,2.836c1.841,0.18,3.649,0.472,5.411,0.856
			c-0.66-4.917-4.82-8.725-9.92-8.725c-5.106,0-9.268,3.805-9.929,8.725c1.773-0.385,3.573-0.68,5.413-0.856
			C322.313,45.829,324.02,44.662,326.005,44.662z"/>
		<path fill="#FFFFFF" d="M291.806,93.953c0-3.84-2.172-7.142-5.339-8.834c3.41-15.282,15.417-27.298,30.699-30.699
			c1.698,3.162,5.002,5.34,8.843,5.34c3.833,0,7.143-2.175,8.834-5.34c-0.004,0-0.004,0-0.008,0
			c0.762-1.417,1.221-3.007,1.221-4.721c0-0.457-0.066-0.898-0.133-1.339c-1.773-0.384-3.57-0.68-5.413-0.856
			c0.327,0.666,0.526,1.405,0.526,2.196c0,1.574-0.74,2.962-1.875,3.887c0.003,0,0.003,0,0.006,0
			c-0.864,0.705-1.953,1.146-3.159,1.146c-1.209,0-2.3-0.436-3.167-1.146c0,0,0,0,0.002,0c-1.135-0.925-1.872-2.311-1.872-3.887
			c0-0.791,0.195-1.53,0.525-2.196c-1.841,0.18-3.651,0.472-5.413,0.856c-17.812,3.86-31.811,17.867-35.675,35.671
			c-0.017,0.065-0.026,0.134-0.04,0.204c0.015-0.067,0.017-0.138,0.032-0.207c-4.91,0.663-8.724,4.828-8.724,9.927
			c0,5.095,3.802,9.263,8.724,9.93c-0.384-1.779-0.679-3.582-0.848-5.419c-1.677-0.821-2.835-2.521-2.835-4.51
			c0-1.986,1.164-3.687,2.835-4.509c0.006-0.071,0.026-0.136,0.033-0.208c-0.005,0.072-0.018,0.14-0.026,0.213
			c0.661-0.329,1.398-0.525,2.187-0.525c1.572,0,2.964,0.739,3.896,1.872c0,0,0,0,0-0.002c0.696,0.868,1.145,1.956,1.145,3.16
			c0,1.205-0.437,2.297-1.145,3.166c0.148,1.927,0.422,3.827,0.827,5.669C289.631,101.094,291.806,97.793,291.806,93.953z
			 M321.99,53.681c-1.165,0.113-2.309,0.276-3.448,0.489C319.678,53.958,320.825,53.794,321.99,53.681z M281.744,83.894
			c1.715-0.003,3.308,0.472,4.723,1.229l0,0C285.048,84.365,283.458,83.894,281.744,83.894z"/>
		<path fill="#FFFFFF" d="M380.323,93.953c0-5.099-3.803-9.264-8.725-9.926c0.385,1.776,0.684,3.579,0.848,5.417
			c1.682,0.818,2.838,2.523,2.838,4.509c0,1.989-1.166,3.687-2.838,4.505c0,0.002,0,0.008,0,0.008
			c-0.662,0.321-1.396,0.519-2.188,0.519c-1.57,0-2.959-0.74-3.891-1.864v-0.006c-0.697-0.868-1.145-1.959-1.145-3.163
			c0-1.204,0.443-2.29,1.145-3.158c0,0,0,0,0-0.003c0.93-1.13,2.309-1.87,3.891-1.87c0.795,0,1.533,0.196,2.188,0.524
			c-0.178-1.839-0.463-3.645-0.848-5.417c-3.867-17.805-17.865-31.811-35.676-35.672c0.064,0.441,0.145,0.883,0.145,1.339
			c0,1.716-0.473,3.306-1.229,4.722c15.279,3.401,27.291,15.417,30.697,30.702l0,0c-3.168,1.693-5.336,4.994-5.336,8.832
			c0,3.84,2.172,7.134,5.336,8.832l0,0l0,0c-3.408,15.284-15.416,27.301-30.697,30.703c0.76,1.418,1.229,3.013,1.229,4.722
			c0-1.709-0.473-3.305-1.229-4.722c-1.699-3.163-4.999-5.341-8.834-5.341c-3.84,0-7.146,2.178-8.844,5.341
			c-15.28-3.404-27.289-15.419-30.699-30.703c-0.417-1.846-0.681-3.741-0.826-5.669c-0.932,1.129-2.313,1.87-3.896,1.87
			c-0.795,0-1.532-0.193-2.188-0.53c0.181,1.84,0.463,3.651,0.848,5.422c0.442,0.064,0.888,0.134,1.34,0.134
			c0.859,0.002,1.686-0.116,2.474-0.326c-0.789,0.21-1.616,0.329-2.474,0.329c-0.452,0-0.897-0.072-1.34-0.134
			c3.867,17.802,17.867,31.811,35.678,35.668c0.002,0,0.008,0.003,0.014,0.003c-0.005-0.003-0.011-0.003-0.017-0.003
			c0.664,4.912,4.821,8.725,9.929,8.725c5.099,0,9.256-3.801,9.918-8.725c-1.771,0.385-3.568,0.685-5.41,0.856
			c-0.822,1.68-2.522,2.833-4.508,2.833c-1.985,0-3.689-1.165-4.517-2.833c-0.002,0-0.009-0.002-0.012-0.002
			c0.003,0.002,0.009,0.002,0.015,0.002c-0.321-0.671-0.525-1.406-0.525-2.195c0-1.57,0.737-2.961,1.873-3.887c0,0,0,0-0.003,0
			c0.868-0.698,1.954-1.147,3.168-1.147c1.199,0,2.294,0.437,3.16,1.147c1.136,0.926,1.876,2.306,1.876,3.887
			c0,0.795-0.2,1.534-0.526,2.195c1.842-0.183,3.65-0.471,5.41-0.856c17.811-3.857,31.807-17.866,35.676-35.666l0,0
			c0-0.002,0-0.002,0-0.006C376.517,103.219,380.323,99.051,380.323,93.953z M366.087,88.247c-0.027-0.211-0.061-0.421-0.092-0.629
			C366.026,87.826,366.06,88.036,366.087,88.247z M315.945,138.213c-0.002-1.713,0.46-3.308,1.221-4.724l0,0
			C316.408,134.905,315.945,136.5,315.945,138.213z"/>
	</g>
	<path fill="#FFFFFF" d="M339.233,82.868c0,7.307-5.924,23.975-13.231,23.975c-7.311,0-13.234-16.666-13.234-23.975
		c0-7.305,5.92-13.234,13.234-13.234C333.313,69.634,339.233,75.563,339.233,82.868z"/>
	<path fill="#FFFFFF" d="M332.228,112.926c0-1.849-1.249-3.354-2.798-3.354h-6.86c-1.552,0-2.798,1.505-2.798,3.354
		c0,1.613,0.969,2.901,2.235,3.221c-0.168,0.501-0.291,1.048-0.291,1.669c0,1.852,0.858,3.354,1.925,3.354h4.712
		c1.063,0,1.928-1.502,1.928-3.354c0-0.621-0.123-1.168-0.291-1.669C331.255,115.827,332.228,114.539,332.228,112.926z"/>
</g>
<g enable-background="new    ">
	<polygon fill="#FFFFFF" points="363.352,388.078 288.392,388.078 288.392,393.039 311.422,393.039 302.887,407.456 310.94,407.456 
		319.47,393.039 332.242,393.039 340.766,407.456 348.817,407.456 340.286,393.039 363.352,393.039 	"/>
	<path fill="#FFFFFF" d="M295.523,336.961v48.26h60.695v-48.26H295.523z M311.402,372.76c-6.01,0-10.877-4.873-10.877-10.875
		c0-6.01,4.866-10.881,10.877-10.881v10.881h10.884C322.28,367.887,317.41,372.76,311.402,372.76z M313.086,360.304v-10.879
		c6.01,0,10.88,4.874,10.88,10.879H313.086z M352.3,372.795h-22.982v-4.325H352.3V372.795z M352.3,364.08h-22.982v-4.325H352.3
		V364.08z M352.3,354.898h-22.982v-4.324H352.3V354.898z"/>
	<path fill="#FFFFFF" d="M361.666,327.096h-27.274v-2.233h-16.968v2.233h-27.08c-1.321,0-2.389,1.631-2.389,3.647
		c0,2.02,1.068,3.652,2.389,3.652h71.313c1.321,0,2.389-1.633,2.389-3.652C364.045,328.727,362.989,327.096,361.666,327.096z"/>
</g>
<g enable-background="new    ">
	<path fill="#FFFFFF" d="M534.152,195.662c0,2.849-2.308,5.16-5.16,5.16h-23.221c-2.848,0-5.161-2.312-5.161-5.16v-1.721
		c0-2.849,2.313-5.161,5.161-5.161h23.221c2.853,0,5.16,2.313,5.16,5.161V195.662z"/>
	<path fill="#FFFFFF" d="M538.212,205.229h-41.656c-2.979,0-5.409,2.36-5.409,5.273v49.44c0,2.912,2.421,5.276,5.409,5.276h41.656
		c2.98,0,5.402-2.364,5.402-5.276v-49.44C543.611,207.59,541.194,205.229,538.212,205.229z M535.226,239.63h-13.223v13.224h-9.24
		V239.63h-13.22v-9.243h13.224v-13.225h9.234v13.225h13.224L535.226,239.63L535.226,239.63z"/>
</g>
<g>
	<polygon fill="none" stroke="#FFFFFF" stroke-miterlimit="10" points="257.424,233.169 326.151,186.172 341.051,196.36 
		653.091,-17.023 326.151,-240.595 -1.268,-16.696 -54.617,19.786 	"/>
	<polygon fill="none" stroke="#FFFFFF" stroke-miterlimit="10" points="287.482,232.992 341.051,196.36 326.151,186.172 
		257.424,233.169 -54.617,446.55 -1.521,482.858 326.151,706.934 653.344,483.186 	"/>
</g>
</svg>
