<?xml version="1.0" encoding="utf-8"?>
<!-- Generator: Adobe Illustrator 16.0.0, SVG Export Plug-In . SVG Version: 6.00 Build 0)  -->
<!DOCTYPE svg PUBLIC "-//W3C//DTD SVG 1.1//EN" "http://www.w3.org/Graphics/SVG/1.1/DTD/svg11.dtd">
<svg version="1.1" id="Layer_1" xmlns="http://www.w3.org/2000/svg" xmlns:xlink="http://www.w3.org/1999/xlink" x="0px" y="0px"
	 width="652px" height="454px" viewBox="0 0 652 454" enable-background="new 0 0 652 454" xml:space="preserve">
<g>
	<circle fill="#FFFFFF" cx="352.154" cy="390.438" r="10.333"/>
	<path fill="#FFFFFF" d="M349.368,331.236h-13.733c0.335-1.751-0.139-3.628-1.488-4.983l-4.438-4.431
		c-2.171-2.177-5.702-2.177-7.873,0l-4.437,4.431c-1.35,1.355-1.823,3.232-1.494,4.983h-13.729c-3.074,0-5.572,2.497-5.572,5.572
		v52.06c0,3.08,2.498,5.572,5.572,5.572h36.527c-0.511-1.421-0.831-2.928-0.831-4.527c0-7.493,6.08-13.581,13.58-13.581
		c1.211,0,2.364,0.212,3.482,0.514v-40.033C354.94,333.733,352.443,331.236,349.368,331.236z M321.836,327.917
		c2.171-2.177,5.702-2.177,7.873,0l3.322,3.324h-14.523L321.836,327.917z M339.441,373.118h-28.379c-1.785,0-3.221-1.444-3.221-3.22
		s1.442-3.22,3.221-3.22h28.381c1.785,0,3.222,1.444,3.222,3.22S341.224,373.118,339.441,373.118z M339.441,360.54h-28.379
		c-1.785,0-3.221-1.443-3.221-3.221s1.442-3.22,3.221-3.22h28.381c1.785,0,3.222,1.442,3.222,3.22S341.224,360.54,339.441,360.54z
		 M339.441,347.959h-28.379c-1.785,0-3.221-1.444-3.221-3.22c0-1.778,1.442-3.223,3.221-3.223h28.381
		c1.785,0,3.222,1.444,3.222,3.223C342.665,346.515,341.224,347.959,339.441,347.959z"/>
</g>
<g>
	<path fill="#FFFFFF" d="M500.448,211.203c-10.698-4.234-14.465,5.769-14.465,5.769s-6.094-9.35-14.46-5.769
		c-11.812,5.05-9.303,17.163-3.635,24.003c5.676,6.837,18.095,16.651,18.095,16.651s12.418-9.814,18.093-16.651
		C509.751,228.366,510.617,215.228,500.448,211.203z M492.146,233.729h-4.344v4.343h-4.214v-4.343h-4.344v-4.215h4.344v-4.339h4.214
		v4.339h4.344V233.729z"/>
	<polygon fill="#FFFFFF" points="515.076,260.898 511.35,242.538 508.251,242.538 502.925,273.25 497.535,252.688 497.567,252.646 
		497.523,252.646 494.468,252.646 494.425,252.646 494.437,252.688 488.428,260.898 466.588,260.898 466.588,263.997 
		486.163,263.997 489.263,263.997 489.285,263.997 489.285,263.96 495.253,255.805 501.687,280.369 504.785,280.369 
		509.919,250.771 512.603,263.997 512.85,263.997 515.701,263.997 521.532,263.997 521.532,260.898 	"/>
	<path fill="#FFFFFF" d="M539.085,229.52l22.776-26.813c1.675-1.977,1.675-5.183,0-7.16l-9.865-11.615
		c0.005-0.086,0.055-0.159,0.055-0.247c0-1.837-1.422-3.295-3.207-3.471c-0.113-0.012-0.212-0.065-0.328-0.065
		c-1.191,0-2.2,0.634-2.846,1.551c-0.401,0.574-0.683,1.235-0.683,1.985c0,1.949,1.583,3.536,3.534,3.536
		c0.559,0,1.059-0.151,1.529-0.378l7.838,9.229c1.418,1.673,1.418,4.381,0,6.054L538.635,224.8c-1.428,1.673-3.724,1.673-5.148,0
		l-19.253-22.675c-1.428-1.673-1.428-4.381,0-6.054l7.837-9.229c0.466,0.227,0.972,0.378,1.523,0.378
		c1.953,0,3.538-1.583,3.538-3.536c0-0.753-0.288-1.415-0.689-1.985c-0.639-0.915-1.645-1.551-2.846-1.551
		c-0.116,0-0.209,0.057-0.323,0.065c-1.793,0.176-3.205,1.631-3.205,3.471c0,0.085,0.043,0.161,0.049,0.247l-9.861,11.615
		c-1.677,1.977-1.677,5.183,0,7.16l22.771,26.813c0.39,0.454,0.834,0.8,1.309,1.044v22.138c-4.103,0.808-7.198,4.412-7.198,8.752
		c0,4.931,4,8.931,8.931,8.931c4.936,0,8.93-4,8.93-8.931c0-4.337-3.09-7.947-7.191-8.752v-22.141
		C538.257,230.313,538.699,229.976,539.085,229.52z"/>
</g>
<g>
	<g>
		<path fill="#FFFFFF" d="M380.48,99.314l-3.793-4.082c-3.145-3.378-7.922-4.037-10.677-1.473l-12.22,11.37l15.023,16.458
			l12.379-11.517C383.94,107.505,383.622,102.692,380.48,99.314z"/>
		<path fill="#FFFFFF" d="M340.143,117.733c-2.757,2.56-2.435,7.376,0.7,10.754l3.799,4.082c3.146,3.378,7.917,4.036,10.674,1.47
			l12.041-11.204l-15.021-16.458L340.143,117.733z"/>
	</g>
	<path fill="#FFFFFF" d="M346.846,71.049h-14.022v-8.232c0-1.362-1.112-2.46-2.488-2.46h-23.077c-1.376,0-2.489,1.099-2.489,2.46
		v8.232h-14.027c-3.336,0-6.046,2.681-6.046,5.984v40.021c0,3.305,2.709,5.985,6.046,5.985h45.158
		c-0.604-2.44-0.082-4.903,1.63-6.493l15.368-14.301V77.036C352.897,73.727,350.188,71.049,346.846,71.049z M310.335,66.078
		c0-0.82,0.672-1.484,1.502-1.484h13.918c0.83,0,1.502,0.665,1.502,1.484v4.968h-16.922V66.078z M332.934,103.514h-8.463v8.462
		h-9.632v-8.462h-8.463V93.88h8.463v-8.463h9.632v8.463h8.463V103.514z"/>
</g>
<path fill="#FFFFFF" d="M142.12,203.125c-8.717,0-18.886,7.088-18.886,9.802v0.033h-3.631v-0.033c0-2.713-10.169-9.802-18.889-9.802
	s-18.889,7.088-18.889,9.802v44.249c0,2.718,2.374,4.915,5.301,4.915c0,0,7.231-2.665,13.588-2.665
	c8.277,0,13.588,2.665,13.588,2.665c1.618,0,3.046-0.686,4.017-1.742c0.318,0.243,0.699,0.406,1.128,0.406h4.03
	c0.407,0,0.761-0.157,1.072-0.375c0.973,1.041,2.384,1.711,3.986,1.711c0,0,5.312-2.665,13.585-2.665
	c6.352,0,13.588,2.665,13.588,2.665c2.925,0,5.301-2.197,5.301-4.915v-44.249C161.009,210.214,150.839,203.125,142.12,203.125z
	 M123.233,216.766v40.188h-3.631v-40.188H123.233z"/>
<g>
	<polygon fill="none" stroke="#FFFFFF" stroke-miterlimit="10" points="257.424,233.169 326.151,186.172 341.051,196.36 
		653.091,-17.023 326.151,-240.595 -1.268,-16.696 -54.617,19.786 	"/>
	<polygon fill="none" stroke="#FFFFFF" stroke-miterlimit="10" points="287.482,232.992 341.051,196.36 326.151,186.172 
		257.424,233.169 -54.617,446.55 -1.521,482.858 326.151,706.934 653.344,483.186 	"/>
</g>
<rect x="317.955" y="224.879" transform="matrix(-0.7071 0.7071 -0.7071 -0.7071 721.2198 167.1115)" fill="#FFFFFF" width="16.091" height="16.093"/>
</svg>
