<?xml version="1.0" encoding="utf-8"?>
<!-- Generator: Adobe Illustrator 16.0.0, SVG Export Plug-In . SVG Version: 6.00 Build 0)  -->
<!DOCTYPE svg PUBLIC "-//W3C//DTD SVG 1.1//EN" "http://www.w3.org/Graphics/SVG/1.1/DTD/svg11.dtd">
<svg version="1.1" id="Layer_1" xmlns="http://www.w3.org/2000/svg" xmlns:xlink="http://www.w3.org/1999/xlink" x="0px" y="0px"
	 width="652px" height="454px" viewBox="0 0 652 454" enable-background="new 0 0 652 454" xml:space="preserve">
<g>
	<g>
		<path fill="#FFFFFF" d="M326.367,79.475c0,0,9.472-33.161,45.409-25.776c0,0,0.145,30.788-39.28,31.625v13.374h-7.104V88.109
			c0,0-37.332,9.606-43.742-30.228C281.651,57.877,313.41,47.574,326.367,79.475z"/>
		<path fill="#FFFFFF" d="M368.363,121.261c0.971-3.896,0-3.896,0-8.079c0-4.175-4.001-10.027-18.207-10.027
			c-3.284,0-35.204-1.669-36.729-0.351c-2.521,2.182,2.768,8.483,9.113,8.058c20.894-1.392,14.745,6.349,6.541,6.349
			c-13.793,0-15.603,0-20.48,0c-4.877,0-8.362-4.729-12.818-9.606c-4.458-4.874-8.914-7.655-12.399-4.177
			c-3.484,3.483-1.948,4.595,6.688,13.513c8.637,8.919,4.039,11.146,19.784,11.146c15.739,0,41.931,0,47.502,0
			C362.932,128.09,367.422,125.043,368.363,121.261z"/>
	</g>
</g>
<g>
	<path fill="#FFFFFF" d="M339.125,364.906c-0.671-4.047-2.193-7.809-4.416-11.057l3.738-3.736l-6.722-6.72l-3.649,3.656
		c-3.246-2.365-7.017-4.049-11.113-4.819v-5.121h-9.5v4.988c-4.195,0.654-8.081,2.225-11.431,4.54l-3.486-3.485l-6.717,6.716
		l3.432,3.433c-2.4,3.333-4.071,7.216-4.798,11.428l-4.896,0.004v9.497h4.896c0.722,4.186,2.379,8.045,4.754,11.367l-3.571,3.57
		l6.719,6.716l3.605-3.612c3.317,2.309,7.16,3.889,11.31,4.567v5.328l9.5-0.003l-0.002-5.404c4.055-0.741,7.797-2.354,11.032-4.648
		l3.956,3.964l6.722-6.725l-3.979-3.969c2.258-3.228,3.842-6.947,4.563-10.974h5.554v-9.502L339.125,364.906L339.125,364.906z
		 M312.098,389.187c-10.798,0-19.55-8.751-19.55-19.547c0-10.794,8.752-19.55,19.55-19.55c10.795,0,19.547,8.751,19.547,19.55
		C331.646,380.436,322.894,389.187,312.098,389.187z"/>
	<path fill="#FFFFFF" d="M373.418,339.568c-0.388-2.326-1.261-4.49-2.541-6.363l2.147-2.144l-3.861-3.867l-2.099,2.1
		c-1.874-1.359-4.033-2.327-6.394-2.769v-2.944h-5.461v2.865c-2.414,0.379-4.649,1.284-6.574,2.614l-2.005-2.005l-3.859,3.864
		l1.97,1.974c-1.38,1.918-2.343,4.151-2.758,6.571l-2.813,0.003v5.463h2.813c0.415,2.408,1.369,4.627,2.736,6.537l-2.059,2.054
		l3.865,3.859l2.073-2.076c1.904,1.327,4.116,2.233,6.503,2.626v3.067l5.465-0.003v-3.107c2.329-0.426,4.484-1.354,6.343-2.676
		l2.274,2.278l3.868-3.868l-2.287-2.283c1.297-1.853,2.205-3.996,2.62-6.31h3.194v-5.467L373.418,339.568z M357.873,353.531
		c-6.211,0-11.245-5.032-11.245-11.239c0-6.211,5.034-11.245,11.245-11.245c6.208,0,11.242,5.034,11.242,11.245
		C369.115,348.5,364.081,353.531,357.873,353.531z"/>
	<path fill="#FFFFFF" d="M348.957,411.542h4.379v-12.525c0,0,17.037,5.763,23.246-23.027c0,0-19.472-5.617-25.922,17.126
		c0,0-2.193-17.27-27.016-14.102c0,0,1.302,20.526,25.276,21.102L348.957,411.542z"/>
</g>
<g>
	<g>
		<path fill="#FFFFFF" d="M552.395,226.186c0-1.938-13.985-3.515-31.24-3.515s-31.241,1.576-31.241,3.515
			c0,0.122,0.057,0.238,0.156,0.355h-0.156v11.049h0.425c2.361,1.676,15.238,2.959,30.816,2.959s28.455-1.287,30.816-2.959h0.427
			v-11.049h-0.156C552.338,226.424,552.395,226.308,552.395,226.186z"/>
		<path fill="#FFFFFF" d="M552.237,243.415c-1.569,1.779-14.882,3.163-31.083,3.163c-16.199,0-29.516-1.384-31.085-3.163h-0.156
			v11.054h0.425c2.364,1.674,15.24,2.956,30.816,2.956c15.578,0,28.455-1.287,30.816-2.956h0.427v-11.054H552.237z"/>
		<path fill="#FFFFFF" d="M552.237,260.19c-1.569,1.777-14.882,3.168-31.083,3.168c-16.199,0-29.516-1.391-31.085-3.168h-0.156
			v11.051h0.425c2.364,1.677,15.24,3.713,30.816,3.713c15.578,0,28.455-2.036,30.816-3.713h0.427V260.19H552.237z"/>
		<path fill="#FFFFFF" d="M529.558,195.197c-6.837,3.62-8.625,9.043-9.067,12.263c-0.898-3.158-3.127-7.224-8.613-10.127
			c-10.244-5.427-22.169-3.481-22.169-3.481s7.842,24.446,28.931,19.128v6.862h4.893v-8.836c20.525,4.571,28.19-19.29,28.19-19.29
			S539.803,189.773,529.558,195.197z"/>
	</g>
</g>
<g>
	<g>
		<path fill="#FFFFFF" d="M122.391,251.604c-4.249-9.071-25.091-56.357-27.981-56.357c-2.893,0-23.74,47.286-27.983,56.357
			c-4.247,9.071-4.388,10.246-1.448,12.689c1.744,1.451,2.991,1.784,8.008,1.784c4.417,0,13.202,0,15.247,0
			c0-7.331,0-21.551,0-22.183c0-0.852,2.314-1.363,6.174-1.363c3.862,0,6.177,0.402,6.177,1.363c0,0.714,0,14.873,0,22.183
			c1.826,0,10.755,0,15.245,0c5.022,0,6.27-0.333,8.011-1.784C126.775,261.85,126.639,260.675,122.391,251.604z"/>
		<polygon fill="#FFFFFF" points="88.667,270.368 88.667,279.394 94.409,279.394 100.247,279.394 100.247,270.368 		"/>
	</g>
	<g>
		<polygon fill="#FFFFFF" points="138.045,241.875 138.045,247.809 141.818,247.809 145.658,247.809 145.658,241.875 		"/>
		<path fill="#FFFFFF" d="M160.221,229.535c-2.793-5.965-16.499-37.048-18.402-37.048c-1.898,0-15.604,31.083-18.396,37.048
			c-2.793,5.964-2.886,6.737-0.952,8.342c1.148,0.955,1.969,1.173,5.268,1.173c2.91,0,8.692,0,10.023,0c0-4.82,0-14.167,0-14.58
			c0-0.56,1.522-0.897,4.058-0.897c2.541,0,4.063,0.266,4.063,0.897c0,0.468,0,9.773,0,14.58c1.179,0,7.063,0,10.024,0
			c3.298,0,4.118-0.218,5.264-1.173C163.103,236.272,163.011,235.499,160.221,229.535z"/>
	</g>
</g>
<g>
	<polygon fill="none" stroke="#FFFFFF" stroke-miterlimit="10" points="257.424,233.169 326.151,186.172 341.051,196.36 
		653.091,-17.023 326.151,-240.595 -1.268,-16.696 -54.617,19.786 	"/>
	<polygon fill="none" stroke="#FFFFFF" stroke-miterlimit="10" points="287.482,232.992 341.051,196.36 326.151,186.172 
		257.424,233.169 -54.617,446.55 -1.521,482.858 326.151,706.934 653.344,483.186 	"/>
</g>
<rect x="317.955" y="224.879" transform="matrix(-0.7071 0.7071 -0.7071 -0.7071 721.2198 167.1115)" fill="#FFFFFF" width="16.091" height="16.093"/>
</svg>
