<?xml version="1.0" encoding="utf-8"?>
<!-- Generator: Adobe Illustrator 16.0.0, SVG Export Plug-In . SVG Version: 6.00 Build 0)  -->
<!DOCTYPE svg PUBLIC "-//W3C//DTD SVG 1.1//EN" "http://www.w3.org/Graphics/SVG/1.1/DTD/svg11.dtd">
<svg version="1.1" id="Layer_1" xmlns="http://www.w3.org/2000/svg" xmlns:xlink="http://www.w3.org/1999/xlink" x="0px" y="0px"
	 width="26px" height="26px" viewBox="2 2 26 26" enable-background="new 2 2 26 26" xml:space="preserve">
<g>
	<path fill="#FFFFFF" d="M15,3.733c6.212,0,11.267,5.054,11.267,11.267c0,6.212-5.055,11.267-11.267,11.267
		C8.788,26.267,3.733,21.212,3.733,15C3.733,8.788,8.788,3.733,15,3.733 M15,2C7.82,2,2,7.82,2,15s5.82,13,13,13s13-5.82,13-13
		S22.18,2,15,2L15,2z"/>
</g>
<g>
	<path fill="#FFFFFF" d="M13.141,20.516c0,0.807-0.795,1.459-1.775,1.459l0,0c-0.98,0-1.775-0.652-1.775-1.459V9.484
		c0-0.806,0.795-1.459,1.775-1.459l0,0c0.98,0,1.775,0.653,1.775,1.459V20.516z"/>
	<path fill="#FFFFFF" d="M20.408,20.516c0,0.807-0.793,1.459-1.774,1.459l0,0c-0.979,0-1.775-0.652-1.775-1.459V9.484
		c0-0.806,0.796-1.459,1.775-1.459l0,0c0.981,0,1.774,0.653,1.774,1.459V20.516z"/>
</g>
</svg>
