<?xml version="1.0" encoding="utf-8"?>
<!-- Generator: Adobe Illustrator 16.0.0, SVG Export Plug-In . SVG Version: 6.00 Build 0)  -->
<!DOCTYPE svg PUBLIC "-//W3C//DTD SVG 1.1//EN" "http://www.w3.org/Graphics/SVG/1.1/DTD/svg11.dtd">
<svg version="1.1" id="레이어_1" xmlns="http://www.w3.org/2000/svg" xmlns:xlink="http://www.w3.org/1999/xlink" x="0px"
	 y="0px" width="1374.838px" height="381.329px" viewBox="0 0 1374.838 381.329" enable-background="new 0 0 1374.838 381.329"
	 xml:space="preserve">
<g>
	<path fill="#E15449" d="M915.93,325.451c0,0,18.152-37.879,36.484-65.855c42.873-65.434,74.059-82.669,95.924-90.672
		c44.363-16.239,68.438-15.108,129.33-50.209C1238.56,83.612,1311.939,13.024,1343.495,0c0,0,7.284,41.896-23.691,64.043
		c-30.976,22.148-79.33,48.995-161.697,81.083c-82.367,32.088-107.869,33.148-127.767,44.883
		c-10.208,6.022-53.099,45.304-67.872,86.315C956.853,291.914,953.277,302.299,915.93,325.451z"/>
	<path fill="#E15449" d="M1122.875,166.629c0,0,93.025-32.191,135.535-54.596c42.499-22.401,62.05-38.554,76.945-39.887
		c0,0,4.051,30.046-36.231,52.025C1258.843,146.15,1160.121,158.646,1122.875,166.629z"/>
	<path fill="#E15449" d="M1035.159,202.928c0,0,42.252-16.638,83.611-26.107c41.361-9.471,77.771-10.777,116.398-19.246
		c38.628-8.47,65.339-19.656,87.459-32.019c0,0,4.973,36.512-37.942,45.038c-42.914,8.527-61.2,1.424-119.622,8.785
		C1106.64,186.741,1059.927,197.462,1035.159,202.928z"/>
	<path fill="#E15449" d="M1012.846,222.622c0,0,18.693-12.852,74.555-22.563c55.859-9.713,106.453-9.862,152.152-13.776
		c45.699-3.913,70.763-12.368,70.763-12.368s-6.597,16.138-23.552,29.788c-17.137,13.794-23.512,17.807-64.507,13.29
		c-34.668-3.819-57.292-6.556-103.179-6.495C1073.26,210.558,1051.481,212.827,1012.846,222.622z"/>
	<path fill="#E15449" d="M997.252,240.007c0,0,23.826-10.8,62.435-15.293c38.609-4.494,96.534-5.777,181.671,8.114
		c0,0-52.636,20.174-99.24,17.691C1095.514,248.038,1061.28,233.921,997.252,240.007z"/>
	<path fill="#E15449" d="M984.524,260.996c0,0,14.805-15.21,53.159-15.338c38.353-0.13,61.462,11.803,61.462,11.803
		s-38.104,10.603-53.57,17.038c-15.465,6.436-22.072,2.428-30.215-6.497C1007.217,259.076,990.295,260.243,984.524,260.996z"/>
	<path fill="#E15449" d="M963.457,297.924c0,0,8.544-9.706,11.702-18.422c3.16-8.714,1.779-11.654,15.791-8.484
		c14.014,3.171,18.275,7.064,18.407,13.001C1009.487,289.957,975.143,298.616,963.457,297.924z"/>
</g>
<g>
	<path fill="#9FB86B" d="M1017.338,313.128c0,0,23.973-14.495,44.429-23.4c47.837-20.831,71.536-19.045,86.659-15.518
		c30.687,7.16,43.702,16.591,90.504,19.271c46.802,2.677,113.544-9.877,135.908-5.606c0,0-11.252,26.034-36.63,27.065
		c-25.376,1.033-62.166-1.667-119.847-13.877s-72.296-20.94-87.686-21.668c-7.896-0.374-46.183,5.86-69.418,23.339
		C1052.428,309.379,1046.636,313.867,1017.338,313.128z"/>
	<path fill="#9FB86B" d="M1190.847,300.18c0,0,63.664,16.049,95.57,19.091c31.897,3.039,48.709,1.175,57.506,5.877
		c0,0-8.725,18.242-39.232,15.776C1274.185,338.461,1214.542,309.343,1190.847,300.18z"/>
	<path fill="#9FB86B" d="M1128.643,288.364c0,0,29.653,6.165,56.188,16.001c26.536,9.838,47.326,22.419,71.971,31.815
		c24.646,9.396,43.636,12.92,60.496,14.111c0,0-10.574,22.186-37.632,11.254c-27.057-10.932-34.662-21.58-69.945-38.83
		C1174.438,305.465,1144.458,294.37,1128.643,288.364z"/>
	<path fill="#9FB86B" d="M1108.996,291.194c0,0,15.127-0.336,49.841,14.667c34.712,15.002,62.992,33.415,89.917,47.938
		s43.997,18.969,43.997,18.969s-9.579,6.591-24.028,8.008c-14.602,1.43-19.626,1.338-40.845-16.168
		c-17.943-14.804-29.563-24.602-55.185-41.342C1147.11,306.548,1134.13,299.854,1108.996,291.194z"/>
	<path fill="#9FB86B" d="M1093.941,295.192c0,0,17.24,2.685,40.42,14.292c23.184,11.607,55.966,32.067,98.384,70.94
		c0,0-36.739-7.988-61.83-26.409C1145.822,335.593,1131.884,315.204,1093.941,295.192z"/>
	<path fill="#9FB86B" d="M1079.167,302.248c0,0,13.82-3.073,35.264,10.877c21.443,13.947,29.973,29.053,29.973,29.053
		s-25.134-8.015-36.113-10.078c-10.981-2.063-13.202-6.715-14.482-14.672C1092.529,309.473,1082.663,303.937,1079.167,302.248z"/>
	<path fill="#9FB86B" d="M1053.916,315.147c0,0,8.313-2.292,13.262-5.999c4.948-3.706,5.253-5.853,11.911,1.039
		c6.659,6.892,7.613,10.622,5.517,13.983C1082.505,327.53,1060.181,319.805,1053.916,315.147z"/>
</g>
<g>
	<path fill="#7874A7" d="M983.776,178.241c0,0,6.315-17.06,13.104-29.857c15.878-29.931,28.64-38.609,37.749-42.934
		c18.484-8.775,28.911-9.249,53.771-26.817c24.86-17.569,53.688-50.941,66.777-57.817c0,0,4.813,17.777-7.663,28.565
		c-12.473,10.788-32.256,24.297-66.496,41.423c-34.241,17.128-45.196,18.604-53.31,24.459c-4.162,3.003-21.09,21.656-25.824,39.934
		C1000.085,162.144,998.958,166.766,983.776,178.241z"/>
	<path fill="#7874A7" d="M1066.683,101.484c0,0,38.834-17.597,56.272-28.957c17.434-11.358,25.221-19.104,31.592-20.274
		c0,0,2.945,12.797-13.55,23.884C1124.504,87.225,1082.427,96.556,1066.683,101.484z"/>
	<path fill="#7874A7" d="M1030.304,120.642c0,0,17.557-8.863,35.015-14.599c17.461-5.734,33.11-7.751,49.432-12.947
		c16.32-5.195,27.393-11.086,36.439-17.298c0,0,3.604,15.546-14.564,20.937c-18.169,5.39-26.339,3.056-51.238,8.564
		C1060.484,110.806,1040.766,117.295,1030.304,120.642z"/>
	<path fill="#7874A7" d="M1021.466,130.025c0,0,7.55-6.288,31.253-12.708c23.7-6.418,45.516-8.503,65.068-12.016
		c19.553-3.513,30.022-8.157,30.022-8.157s-2.2,7.221-8.968,13.786c-6.839,6.631-9.429,8.619-27.288,8.306
		c-15.104-0.262-24.971-0.54-44.757,1.318C1047.041,122.41,1037.739,124.258,1021.466,130.025z"/>
	<path fill="#7874A7" d="M1015.436,138.144c0,0,9.843-5.607,26.314-9.086c16.473-3.481,41.402-6.347,78.673-3.754
		c0,0-21.894,10.801-42.093,11.592C1058.133,137.686,1042.806,132.965,1015.436,138.144z"/>
	<path fill="#7874A7" d="M1010.784,147.706c0,0,5.778-7.151,22.315-8.737c16.533-1.588,26.979,2.636,26.979,2.636
		s-16.012,6.095-22.424,9.486c-6.414,3.395-9.423,1.929-13.292-1.596C1020.495,145.972,1013.243,147.15,1010.784,147.706z"/>
	<path fill="#7874A7" d="M1003.173,164.471c0,0,3.297-4.526,4.311-8.411c1.015-3.885,0.302-5.098,6.471-4.289
		c6.171,0.807,8.165,2.316,8.46,4.872C1022.706,159.199,1008.24,164.304,1003.173,164.471z"/>
</g>
<g>
	<g>
		<path fill="#E15449" d="M458.908,325.451c0,0-18.152-37.879-36.484-65.855c-42.873-65.434-74.059-82.669-95.924-90.672
			c-44.363-16.239-68.438-15.108-129.33-50.209C136.278,83.612,62.899,13.024,31.344,0c0,0-7.284,41.896,23.691,64.043
			c30.976,22.148,79.33,48.995,161.697,81.083c82.367,32.088,107.869,33.148,127.767,44.883
			c10.208,6.022,53.099,45.304,67.872,86.315C417.985,291.914,421.562,302.299,458.908,325.451z"/>
		<path fill="#E15449" d="M251.963,166.629c0,0-93.025-32.191-135.535-54.596c-42.499-22.401-62.05-38.554-76.945-39.887
			c0,0-4.051,30.046,36.231,52.025C115.995,146.15,214.718,158.646,251.963,166.629z"/>
		<path fill="#E15449" d="M339.68,202.928c0,0-42.252-16.638-83.611-26.107c-41.361-9.471-77.771-10.777-116.398-19.246
			c-38.628-8.47-65.339-19.656-87.459-32.019c0,0-4.973,36.512,37.942,45.038c42.914,8.527,61.2,1.424,119.622,8.785
			C268.198,186.741,314.911,197.462,339.68,202.928z"/>
		<path fill="#E15449" d="M361.992,222.622c0,0-18.693-12.852-74.555-22.563c-55.859-9.713-106.453-9.862-152.152-13.776
			c-45.699-3.913-70.763-12.368-70.763-12.368s6.597,16.138,23.552,29.788c17.137,13.794,23.512,17.807,64.507,13.29
			c34.668-3.819,57.292-6.556,103.179-6.495C301.578,210.558,323.357,212.827,361.992,222.622z"/>
		<path fill="#E15449" d="M377.586,240.007c0,0-23.826-10.8-62.435-15.293c-38.609-4.494-96.534-5.777-181.671,8.114
			c0,0,52.636,20.174,99.24,17.691C279.324,248.038,313.559,233.921,377.586,240.007z"/>
		<path fill="#E15449" d="M390.314,260.996c0,0-14.805-15.21-53.159-15.338c-38.353-0.13-61.462,11.803-61.462,11.803
			s38.104,10.603,53.57,17.038c15.465,6.436,22.072,2.428,30.215-6.497C367.621,259.076,384.543,260.243,390.314,260.996z"/>
		<path fill="#E15449" d="M411.382,297.924c0,0-8.544-9.706-11.702-18.422c-3.16-8.714-1.779-11.654-15.791-8.484
			c-14.014,3.171-18.275,7.064-18.407,13.001C365.352,289.957,399.695,298.616,411.382,297.924z"/>
	</g>
	<g>
		<path fill="#9FB86B" d="M357.5,313.128c0,0-23.973-14.495-44.429-23.4c-47.837-20.831-71.536-19.045-86.659-15.518
			c-30.687,7.16-43.702,16.591-90.504,19.271C89.106,296.159,22.364,283.605,0,287.875c0,0,11.252,26.034,36.63,27.065
			c25.376,1.033,62.166-1.667,119.847-13.877s72.296-20.94,87.686-21.668c7.896-0.374,46.183,5.86,69.418,23.339
			C322.41,309.379,328.202,313.867,357.5,313.128z"/>
		<path fill="#9FB86B" d="M183.991,300.18c0,0-63.664,16.049-95.57,19.091c-31.897,3.039-48.709,1.175-57.506,5.877
			c0,0,8.725,18.242,39.232,15.776C100.653,338.461,160.296,309.343,183.991,300.18z"/>
		<path fill="#9FB86B" d="M246.195,288.364c0,0-29.653,6.165-56.188,16.001c-26.536,9.838-47.326,22.419-71.971,31.815
			c-24.646,9.396-43.636,12.92-60.496,14.111c0,0,10.574,22.186,37.632,11.254c27.057-10.932,34.662-21.58,69.945-38.83
			C200.4,305.465,230.38,294.37,246.195,288.364z"/>
		<path fill="#9FB86B" d="M265.843,291.194c0,0-15.127-0.336-49.841,14.667c-34.712,15.002-62.992,33.415-89.917,47.938
			s-43.997,18.969-43.997,18.969s9.579,6.591,24.028,8.008c14.602,1.43,19.626,1.338,40.845-16.168
			c17.943-14.804,29.563-24.602,55.185-41.342C227.729,306.548,240.708,299.854,265.843,291.194z"/>
		<path fill="#9FB86B" d="M280.897,295.192c0,0-17.24,2.685-40.42,14.292c-23.184,11.607-55.966,32.067-98.384,70.94
			c0,0,36.739-7.988,61.83-26.409C229.017,335.593,242.954,315.204,280.897,295.192z"/>
		<path fill="#9FB86B" d="M295.671,302.248c0,0-13.82-3.073-35.264,10.877c-21.443,13.947-29.973,29.053-29.973,29.053
			s25.134-8.015,36.113-10.078c10.981-2.063,13.202-6.715,14.482-14.672C282.31,309.473,292.176,303.937,295.671,302.248z"/>
		<path fill="#9FB86B" d="M320.923,315.147c0,0-8.313-2.292-13.262-5.999c-4.948-3.706-5.253-5.853-11.911,1.039
			c-6.659,6.892-7.613,10.622-5.517,13.983C292.333,327.53,314.657,319.805,320.923,315.147z"/>
	</g>
	<g>
		<path fill="#7874A7" d="M391.063,178.241c0,0-6.315-17.06-13.104-29.857c-15.878-29.931-28.64-38.609-37.749-42.934
			c-18.484-8.775-28.911-9.249-53.771-26.817c-24.86-17.569-53.688-50.941-66.777-57.817c0,0-4.813,17.777,7.663,28.565
			c12.473,10.788,32.256,24.297,66.496,41.423c34.241,17.128,45.196,18.604,53.31,24.459c4.162,3.003,21.09,21.656,25.824,39.934
			C374.753,162.144,375.881,166.766,391.063,178.241z"/>
		<path fill="#7874A7" d="M308.155,101.484c0,0-38.834-17.597-56.272-28.957c-17.434-11.358-25.221-19.104-31.592-20.274
			c0,0-2.945,12.797,13.55,23.884C250.334,87.225,292.411,96.556,308.155,101.484z"/>
		<path fill="#7874A7" d="M344.534,120.642c0,0-17.557-8.863-35.015-14.599c-17.461-5.734-33.11-7.751-49.432-12.947
			c-16.32-5.195-27.393-11.086-36.439-17.298c0,0-3.604,15.546,14.564,20.937c18.169,5.39,26.339,3.056,51.238,8.564
			C314.354,110.806,334.072,117.295,344.534,120.642z"/>
		<path fill="#7874A7" d="M353.372,130.025c0,0-7.55-6.288-31.253-12.708c-23.7-6.418-45.516-8.503-65.068-12.016
			c-19.553-3.513-30.022-8.157-30.022-8.157s2.2,7.221,8.968,13.786c6.839,6.631,9.429,8.619,27.288,8.306
			c15.104-0.262,24.971-0.54,44.757,1.318C327.798,122.41,337.1,124.258,353.372,130.025z"/>
		<path fill="#7874A7" d="M359.402,138.144c0,0-9.843-5.607-26.314-9.086c-16.473-3.481-41.402-6.347-78.673-3.754
			c0,0,21.894,10.801,42.093,11.592C316.705,137.686,332.032,132.965,359.402,138.144z"/>
		<path fill="#7874A7" d="M364.055,147.706c0,0-5.778-7.151-22.315-8.737c-16.533-1.588-26.979,2.636-26.979,2.636
			s16.012,6.095,22.424,9.486c6.414,3.395,9.423,1.929,13.292-1.596C354.344,145.972,361.596,147.15,364.055,147.706z"/>
		<path fill="#7874A7" d="M371.665,164.471c0,0-3.297-4.526-4.311-8.411c-1.015-3.885-0.302-5.098-6.471-4.289
			c-6.171,0.807-8.165,2.316-8.46,4.872C352.133,159.199,366.599,164.304,371.665,164.471z"/>
	</g>
</g>
</svg>
