<?xml version="1.0" encoding="utf-8"?>
<!-- Generator: Adobe Illustrator 16.0.0, SVG Export Plug-In . SVG Version: 6.00 Build 0)  -->
<!DOCTYPE svg PUBLIC "-//W3C//DTD SVG 1.1//EN" "http://www.w3.org/Graphics/SVG/1.1/DTD/svg11.dtd">
<svg version="1.1" id="Layer_1" xmlns="http://www.w3.org/2000/svg" xmlns:xlink="http://www.w3.org/1999/xlink" x="0px" y="0px"
	 width="111.83px" height="129.131px" viewBox="0 0 111.83 129.131" enable-background="new 0 0 111.83 129.131"
	 xml:space="preserve">
<g>
	<polygon fill="#FFFFFF" points="111.83,96.849 55.915,129.131 0,96.849 0,32.282 55.915,0 111.83,32.282 	"/>
	<g>
		<path fill="#A0C06F" d="M78.739,59.151c0-1.413-10.184-2.56-22.75-2.56c-12.565,0-22.75,1.147-22.75,2.56
			c0,0.087,0.041,0.171,0.114,0.257h-0.114v8.046h0.309c1.719,1.221,11.096,2.156,22.441,2.156c11.345,0,20.722-0.938,22.442-2.156
			h0.31v-8.046h-0.115C78.698,59.322,78.739,59.238,78.739,59.151z"/>
		<path fill="#A0C06F" d="M78.624,71.696C77.481,72.991,67.786,74,55.989,74c-11.797,0-21.493-1.009-22.636-2.304h-0.114v8.049
			h0.309c1.72,1.22,11.097,2.154,22.441,2.154c11.345,0,20.722-0.937,22.442-2.154h0.31v-8.049H78.624z"/>
		<path fill="#A0C06F" d="M78.624,83.912c-1.143,1.294-10.838,2.307-22.635,2.307c-11.797,0-21.493-1.013-22.636-2.307h-0.114v8.048
			h0.309c1.72,1.221,11.097,2.704,22.441,2.704c11.345,0,20.722-1.483,22.442-2.704h0.31v-8.048H78.624z"/>
		<path fill="#A0C06F" d="M62.108,36.584c-4.979,2.636-6.281,6.586-6.603,8.929c-0.655-2.299-2.277-5.26-6.271-7.375
			c-7.462-3.95-16.145-2.535-16.145-2.535s5.712,17.801,21.068,13.929v4.997h3.563v-6.433C72.668,51.425,78.25,34.049,78.25,34.049
			S69.569,32.634,62.108,36.584z"/>
	</g>
</g>
</svg>
