<?xml version="1.0" encoding="utf-8"?>
<!-- Generator: Adobe Illustrator 16.0.0, SVG Export Plug-In . SVG Version: 6.00 Build 0)  -->
<!DOCTYPE svg PUBLIC "-//W3C//DTD SVG 1.1//EN" "http://www.w3.org/Graphics/SVG/1.1/DTD/svg11.dtd">
<svg version="1.1" id="Layer_1" xmlns="http://www.w3.org/2000/svg" xmlns:xlink="http://www.w3.org/1999/xlink" x="0px" y="0px"
	 width="111.83px" height="129.131px" viewBox="0 0 111.83 129.131" enable-background="new 0 0 111.83 129.131"
	 xml:space="preserve">
<g>
	<polygon fill="#FFFFFF" points="111.83,96.849 55.915,129.131 0,96.849 0,32.285 55.915,0.002 111.83,32.285 	"/>
	<g>
		<path fill="#A0C06F" d="M55.011,59.962c0,0,6.06-21.216,29.052-16.491c0,0,0.093,19.698-25.131,20.233v8.557h-4.544v-6.775
			c0,0-23.885,6.146-27.985-19.34C26.403,46.144,46.722,39.552,55.011,59.962z"/>
		<path fill="#A0C06F" d="M81.88,86.696c0.622-2.493,0-2.493,0-5.168c0-2.672-2.559-6.416-11.648-6.416
			c-2.102,0-22.525-1.069-23.499-0.225c-1.614,1.396,1.769,5.428,5.83,5.156c13.368-0.889,9.433,4.064,4.184,4.064
			c-8.825,0-9.983,0-13.102,0c-3.12,0-5.35-3.027-8.201-6.148c-2.852-3.118-5.704-4.898-7.932-2.672
			c-2.229,2.229-1.246,2.941,4.279,8.646s2.583,7.131,12.657,7.131c10.07,0,26.826,0,30.391,0
			C78.405,91.065,81.278,89.115,81.88,86.696z"/>
	</g>
</g>
</svg>
