<?xml version="1.0" encoding="utf-8"?>
<!-- Generator: Adobe Illustrator 16.0.0, SVG Export Plug-In . SVG Version: 6.00 Build 0)  -->
<!DOCTYPE svg PUBLIC "-//W3C//DTD SVG 1.1//EN" "http://www.w3.org/Graphics/SVG/1.1/DTD/svg11.dtd">
<svg version="1.1" id="Layer_1" xmlns="http://www.w3.org/2000/svg" xmlns:xlink="http://www.w3.org/1999/xlink" x="0px" y="0px"
	 width="111.83px" height="129.131px" viewBox="0 0 111.83 129.131" enable-background="new 0 0 111.83 129.131"
	 xml:space="preserve">
<g>
	<polygon fill="#FFFFFF" points="111.83,96.849 55.915,129.131 0,96.849 0,32.282 55.915,0 111.83,32.282 	"/>
	<path fill="#A0C06F" d="M63.229,80.438c-3.22-6.877-19.02-42.722-21.212-42.722S24.022,73.562,20.804,80.438
		c-3.219,6.877-3.325,7.767-1.097,9.619c1.322,1.101,2.268,1.353,6.071,1.353c3.804,0,11.887,0,11.887,0v10.095h4.352h4.426V91.41
		c0,0,8.009,0,11.812,0c3.807,0,4.753-0.252,6.073-1.353C66.554,88.205,66.45,87.315,63.229,80.438z"/>
	<path fill="#FFFFFF" d="M46.698,74.595c0-0.729-1.755-1.033-4.682-1.033c-2.927,0-4.681,0.387-4.681,1.033s0,20.068,0,20.068h9.363
		C46.698,94.664,46.698,75.325,46.698,74.595z"/>
	<path fill="#A0C06F" d="M91.908,63.709c-2.117-4.522-12.507-28.085-13.95-28.085c-1.439,0-11.829,23.563-13.945,28.085
		c-2.117,4.521-2.188,5.106-0.722,6.324c0.87,0.724,1.493,0.889,3.993,0.889c2.502,0,7.813,0,7.813,0v6.64h2.86h2.911v-6.64
		c0,0,5.268,0,7.77,0c2.5,0,3.121-0.165,3.99-0.889C94.093,68.815,94.022,68.229,91.908,63.709z"/>
	<path fill="#FFFFFF" d="M81.038,59.869c0-0.48-1.154-0.681-3.08-0.681c-1.922,0-3.076,0.256-3.076,0.681c0,0.423,0,13.194,0,13.194
		h6.156C81.038,73.063,81.038,60.349,81.038,59.869z"/>
</g>
</svg>
