<?xml version="1.0" encoding="utf-8"?>
<!-- Generator: Adobe Illustrator 16.0.0, SVG Export Plug-In . SVG Version: 6.00 Build 0)  -->
<!DOCTYPE svg PUBLIC "-//W3C//DTD SVG 1.1//EN" "http://www.w3.org/Graphics/SVG/1.1/DTD/svg11.dtd">
<svg version="1.1" id="Layer_1" xmlns="http://www.w3.org/2000/svg" xmlns:xlink="http://www.w3.org/1999/xlink" x="0px" y="0px"
	 width="100px" height="31.994px" viewBox="0 0 100 31.994" enable-background="new 0 0 100 31.994" xml:space="preserve">
<g id="Layer_3">
</g>
<g>
	<path opacity="0.8" fill="#DA291C" d="M14.409,15.997c0,0,3.645-5.319,10.511-9.995C30.518,2.19,34.648,0,34.648,0H21.61
		c0,0-4.201,1.098-10.676,5.517C6.081,8.83,0,15.997,0,15.997s6.081,7.167,10.934,10.48c6.475,4.419,10.676,5.518,10.676,5.518
		h13.039c0,0-4.131-2.19-9.729-6.002C18.054,21.317,14.409,15.997,14.409,15.997z"/>
	<path opacity="0.8" fill="#5A5C9F" d="M45.908,5.031C40.182,0.623,37.042,0,37.042,0H24.003c0,0,5.427,1.581,10.646,5.897
		c6.514,5.389,8.176,10.1,8.176,10.1s-1.663,4.711-8.176,10.1c-5.218,4.316-10.646,5.897-10.646,5.897h13.039
		c0,0,3.14-0.623,8.866-5.031c4.656-3.584,10.765-10.966,10.765-10.966S50.564,8.615,45.908,5.031z"/>
	<path opacity="0.8" fill="#DA291C" d="M89.065,5.517C82.591,1.098,78.391,0,78.391,0h-13.04c0,0,4.133,2.19,9.729,6.002
		c6.866,4.676,10.51,9.995,10.51,9.995s-3.644,5.32-10.51,9.996c-5.597,3.812-9.729,6.002-9.729,6.002h13.04
		c0,0,4.2-1.099,10.675-5.518C93.92,23.165,100,15.997,100,15.997S93.92,8.83,89.065,5.517z"/>
	<path opacity="0.8" fill="#88B04B" d="M57.175,15.997c0,0,1.663-4.711,8.176-10.1C70.569,1.581,75.997,0,75.997,0H62.958
		c0,0-3.14,0.623-8.866,5.031c-4.656,3.584-10.764,10.966-10.764,10.966s6.108,7.382,10.764,10.966
		c5.727,4.408,8.866,5.031,8.866,5.031h13.039c0,0-5.428-1.581-10.646-5.897C58.838,20.708,57.175,15.997,57.175,15.997z"/>
</g>
</svg>
