<?xml version="1.0" encoding="utf-8"?>
<!-- Generator: Adobe Illustrator 16.0.0, SVG Export Plug-In . SVG Version: 6.00 Build 0)  -->
<!DOCTYPE svg PUBLIC "-//W3C//DTD SVG 1.1//EN" "http://www.w3.org/Graphics/SVG/1.1/DTD/svg11.dtd">
<svg version="1.1" id="Layer_1" xmlns="http://www.w3.org/2000/svg" xmlns:xlink="http://www.w3.org/1999/xlink" x="0px" y="0px"
	 width="47.773px" height="55.166px" viewBox="0 0 47.773 55.166" enable-background="new 0 0 47.773 55.166" xml:space="preserve">
<g>
	<polygon fill="#FFFFFF" enable-background="new    " points="47.774,41.374 23.887,55.165 0,41.374 0,13.792 23.887,0 
		47.774,13.792 	"/>
	<g>
		<g>
			<path fill="#5A5C9F" d="M23.887,11.052c0.666,0,1.235,0.391,1.512,0.951c0.618,0.06,1.225,0.158,1.816,0.287
				c-0.222-1.649-1.618-2.926-3.328-2.926c-1.712,0-3.108,1.276-3.33,2.926c0.595-0.129,1.199-0.228,1.816-0.287
				C22.649,11.443,23.221,11.052,23.887,11.052z"/>
			<path fill="#5A5C9F" d="M12.418,27.583c0-1.288-0.729-2.395-1.791-2.963c1.143-5.125,5.171-9.155,10.296-10.296
				c0.569,1.061,1.677,1.791,2.965,1.791c1.286,0,2.396-0.729,2.963-1.791c-0.001,0-0.001,0-0.002,0
				c0.255-0.475,0.41-1.008,0.41-1.583c0-0.153-0.023-0.301-0.045-0.449c-0.595-0.129-1.198-0.228-1.816-0.287
				c0.11,0.223,0.177,0.471,0.177,0.736c0,0.528-0.248,0.994-0.629,1.304c0.001,0,0.001,0,0.002,0
				c-0.29,0.236-0.655,0.384-1.06,0.384c-0.405,0-0.771-0.146-1.062-0.384c0,0,0,0,0.001,0c-0.381-0.31-0.628-0.775-0.628-1.304
				c0-0.265,0.065-0.513,0.176-0.736c-0.617,0.06-1.225,0.158-1.816,0.287c-5.973,1.295-10.669,5.992-11.965,11.964
				c-0.005,0.022-0.008,0.045-0.013,0.068c0.005-0.022,0.006-0.046,0.011-0.069c-1.647,0.222-2.926,1.619-2.926,3.329
				c0,1.709,1.275,3.107,2.926,3.33c-0.129-0.596-0.228-1.201-0.285-1.818c-0.562-0.275-0.951-0.845-0.951-1.512
				c0-0.666,0.391-1.237,0.951-1.512c0.002-0.024,0.009-0.046,0.011-0.07c-0.002,0.024-0.006,0.047-0.009,0.071
				c0.222-0.11,0.469-0.176,0.734-0.176c0.527,0,0.994,0.248,1.306,0.628c0,0,0,0,0-0.001c0.234,0.291,0.384,0.656,0.384,1.06
				s-0.146,0.77-0.384,1.061c0.05,0.647,0.142,1.283,0.278,1.902C11.688,29.978,12.418,28.871,12.418,27.583z M22.541,14.076
				c-0.391,0.038-0.775,0.093-1.156,0.164C21.765,14.169,22.15,14.114,22.541,14.076z M9.043,24.209
				c0.575-0.001,1.109,0.158,1.584,0.412l0,0C10.151,24.367,9.618,24.209,9.043,24.209z"/>
			<path fill="#5A5C9F" d="M42.105,27.583c0-1.71-1.275-3.107-2.926-3.329c0.129,0.595,0.229,1.2,0.285,1.817
				c0.563,0.274,0.951,0.846,0.951,1.512c0,0.667-0.391,1.236-0.951,1.511c0,0.001,0,0.002,0,0.003
				c-0.222,0.107-0.469,0.174-0.734,0.174c-0.527,0-0.993-0.248-1.305-0.626v-0.001c-0.234-0.291-0.384-0.657-0.384-1.061
				s0.148-0.768,0.384-1.059c0,0,0,0,0-0.001c0.312-0.379,0.774-0.627,1.305-0.627c0.267,0,0.514,0.066,0.734,0.176
				c-0.06-0.617-0.156-1.223-0.285-1.817c-1.296-5.972-5.992-10.669-11.964-11.964c0.021,0.148,0.047,0.296,0.047,0.449
				c0,0.576-0.158,1.109-0.412,1.584c5.125,1.141,9.154,5.171,10.296,10.297v0c-1.062,0.568-1.79,1.675-1.79,2.962
				c0,1.288,0.729,2.393,1.79,2.962l0,0l0,0c-1.143,5.126-5.171,9.156-10.296,10.297c0.255,0.475,0.412,1.01,0.412,1.584
				c0-0.574-0.158-1.109-0.412-1.584c-0.569-1.061-1.676-1.791-2.963-1.791c-1.288,0-2.396,0.73-2.965,1.791
				c-5.125-1.142-9.153-5.171-10.296-10.297c-0.14-0.619-0.229-1.255-0.278-1.902c-0.312,0.379-0.775,0.627-1.306,0.627
				c-0.267,0-0.514-0.064-0.734-0.177c0.061,0.617,0.156,1.224,0.285,1.818c0.148,0.021,0.297,0.045,0.449,0.045
				c0.288,0.001,0.565-0.039,0.83-0.11c-0.265,0.071-0.542,0.111-0.83,0.111c-0.152,0-0.301-0.025-0.449-0.045
				c1.296,5.971,5.992,10.669,11.965,11.963c0.001,0,0.003,0.001,0.005,0.001c-0.002-0.001-0.004-0.001-0.006-0.001
				c0.223,1.648,1.618,2.926,3.33,2.926c1.71,0,3.105-1.275,3.328-2.926c-0.595,0.129-1.198,0.229-1.816,0.287
				c-0.275,0.563-0.846,0.951-1.512,0.951s-1.237-0.391-1.514-0.951c-0.001,0-0.003-0.001-0.004-0.001
				c0.001,0.001,0.003,0.001,0.005,0.001c-0.108-0.225-0.176-0.471-0.176-0.736c0-0.527,0.247-0.994,0.628-1.304c0,0,0,0-0.001,0
				c0.291-0.235,0.655-0.384,1.062-0.384c0.403,0,0.77,0.146,1.06,0.384c0.381,0.31,0.629,0.774,0.629,1.304
				c0,0.266-0.066,0.514-0.177,0.736c0.618-0.061,1.225-0.158,1.816-0.287c5.972-1.294,10.667-5.992,11.964-11.962l0,0
				c0-0.001,0-0.001,0-0.002C40.829,30.69,42.105,29.293,42.105,27.583z M37.331,25.669c-0.01-0.071-0.021-0.141-0.031-0.211
				C37.31,25.528,37.321,25.598,37.331,25.669z M20.513,42.427c-0.001-0.574,0.155-1.109,0.41-1.584l0,0
				C20.669,41.317,20.513,41.853,20.513,42.427z"/>
		</g>
		<path fill="#5A5C9F" d="M28.324,23.865c0,2.451-1.986,8.041-4.438,8.041s-4.438-5.589-4.438-8.041c0-2.45,1.985-4.438,4.438-4.438
			C26.339,19.427,28.324,21.415,28.324,23.865z"/>
		<path fill="#5A5C9F" d="M25.974,33.946c0-0.62-0.419-1.125-0.938-1.125h-2.301c-0.52,0-0.938,0.505-0.938,1.125
			c0,0.541,0.325,0.973,0.75,1.08c-0.057,0.168-0.098,0.352-0.098,0.56c0,0.621,0.288,1.125,0.645,1.125h1.581
			c0.356,0,0.646-0.504,0.646-1.125c0-0.208-0.041-0.392-0.098-0.56C25.648,34.919,25.974,34.487,25.974,33.946z"/>
	</g>
</g>
</svg>
