<?xml version="1.0" encoding="utf-8"?>
<!-- Generator: Adobe Illustrator 16.0.0, SVG Export Plug-In . SVG Version: 6.00 Build 0)  -->
<!DOCTYPE svg PUBLIC "-//W3C//DTD SVG 1.1//EN" "http://www.w3.org/Graphics/SVG/1.1/DTD/svg11.dtd">
<svg version="1.1" id="Layer_1" xmlns="http://www.w3.org/2000/svg" xmlns:xlink="http://www.w3.org/1999/xlink" x="0px" y="0px"
	 width="47.773px" height="55.166px" viewBox="0 0 47.773 55.166" enable-background="new 0 0 47.773 55.166" xml:space="preserve">
<g>
	<polygon fill="#FFFFFF" enable-background="new    " points="47.774,41.374 23.887,55.165 0,41.374 0,13.792 23.887,0 
		47.774,13.792 	"/>
	<g enable-background="new    ">
		<path fill="#5A5C9F" d="M30.385,15.437c0,1.104-0.895,2-2,2h-9c-1.104,0-2-0.896-2-2V14.77c0-1.104,0.896-2,2-2h9
			c1.105,0,2,0.896,2,2V15.437z"/>
		<path fill="#5A5C9F" d="M31.958,19.145H15.813c-1.155,0-2.096,0.915-2.096,2.044v19.162c0,1.129,0.938,2.045,2.096,2.045h16.145
			c1.155,0,2.094-0.916,2.094-2.045V21.189C34.051,20.06,33.114,19.145,31.958,19.145z M30.801,32.478h-5.125v5.125h-3.582v-5.125
			H16.97v-3.582h5.125V23.77h3.58v5.125h5.125V32.478L30.801,32.478z"/>
	</g>
</g>
<g id="Layer_2">
</g>
</svg>
