<?xml version="1.0" encoding="utf-8"?>
<!-- Generator: Adobe Illustrator 16.0.0, SVG Export Plug-In . SVG Version: 6.00 Build 0)  -->
<!DOCTYPE svg PUBLIC "-//W3C//DTD SVG 1.1//EN" "http://www.w3.org/Graphics/SVG/1.1/DTD/svg11.dtd">
<svg version="1.1" id="Layer_1" xmlns="http://www.w3.org/2000/svg" xmlns:xlink="http://www.w3.org/1999/xlink" x="0px" y="0px"
	 width="47.773px" height="55.166px" viewBox="0 0 47.773 55.166" enable-background="new 0 0 47.773 55.166" xml:space="preserve">
<g id="Layer_3">
</g>
<g>
	<polygon fill="#FFFFFF" points="47.773,41.374 23.887,55.165 0,41.374 0,13.792 23.887,0 47.773,13.792 	"/>
	<g>
		<circle fill="#E15449" cx="33.061" cy="38.336" r="3.709"/>
		<path fill="#E15449" d="M32.061,17.086h-4.929c0.12-0.629-0.05-1.303-0.535-1.789l-1.592-1.591c-0.78-0.781-2.047-0.781-2.827,0
			l-1.592,1.591c-0.485,0.486-0.655,1.16-0.536,1.789h-4.928c-1.104,0-2,0.896-2,2v18.687c0,1.105,0.896,2,2,2h13.111
			c-0.183-0.51-0.299-1.051-0.299-1.625c0-2.69,2.183-4.875,4.875-4.875c0.435,0,0.849,0.076,1.25,0.184v-14.37
			C34.061,17.982,33.165,17.086,32.061,17.086z M22.178,15.894c0.78-0.781,2.047-0.781,2.827,0l1.192,1.193h-5.213L22.178,15.894z
			 M28.498,32.119H18.311c-0.64,0-1.156-0.519-1.156-1.156s0.518-1.155,1.156-1.155h10.188c0.64,0,1.156,0.518,1.156,1.155
			S29.137,32.119,28.498,32.119z M28.498,27.604H18.311c-0.64,0-1.156-0.518-1.156-1.156c0-0.638,0.518-1.156,1.156-1.156h10.188
			c0.64,0,1.156,0.518,1.156,1.156C29.655,27.086,29.137,27.604,28.498,27.604z M28.498,23.088H18.311
			c-0.64,0-1.156-0.518-1.156-1.156c0-0.638,0.518-1.156,1.156-1.156h10.188c0.64,0,1.156,0.518,1.156,1.156
			C29.655,22.57,29.137,23.088,28.498,23.088z"/>
	</g>
</g>
</svg>
