<?xml version="1.0" encoding="utf-8"?>
<!-- Generator: Adobe Illustrator 16.0.0, SVG Export Plug-In . SVG Version: 6.00 Build 0)  -->
<!DOCTYPE svg PUBLIC "-//W3C//DTD SVG 1.1//EN" "http://www.w3.org/Graphics/SVG/1.1/DTD/svg11.dtd">
<svg version="1.1" id="Layer_1" xmlns="http://www.w3.org/2000/svg" xmlns:xlink="http://www.w3.org/1999/xlink" x="0px" y="0px"
	 width="47.773px" height="55.166px" viewBox="0 0 47.773 55.166" enable-background="new 0 0 47.773 55.166" xml:space="preserve">
<g id="Layer_3">
</g>
<g>
	<polygon fill="#666666" points="47.773,41.374 23.887,55.165 0,41.374 0,13.792 23.887,0 47.773,13.792 	"/>
	<g>
		<circle fill="#FFFFFF" cx="33.061" cy="38.336" r="3.709"/>
		<path fill="#FFFFFF" d="M32.061,17.086h-4.929c0.12-0.629-0.05-1.303-0.535-1.789l-1.592-1.591c-0.78-0.781-2.047-0.781-2.827,0
			l-1.592,1.591c-0.485,0.486-0.655,1.16-0.536,1.789h-4.928c-1.104,0-2,0.896-2,2v18.687c0,1.105,0.896,2,2,2h13.111
			c-0.183-0.51-0.299-1.051-0.299-1.625c0-2.69,2.183-4.875,4.875-4.875c0.435,0,0.849,0.076,1.25,0.184v-14.37
			C34.061,17.982,33.165,17.086,32.061,17.086z M22.178,15.894c0.78-0.781,2.047-0.781,2.827,0l1.192,1.193h-5.213L22.178,15.894z
			 M28.498,32.119H18.311c-0.64,0-1.156-0.519-1.156-1.156s0.518-1.155,1.156-1.155h10.188c0.64,0,1.156,0.518,1.156,1.155
			S29.137,32.119,28.498,32.119z M28.498,27.604H18.311c-0.64,0-1.156-0.518-1.156-1.156c0-0.638,0.518-1.156,1.156-1.156h10.188
			c0.64,0,1.156,0.518,1.156,1.156C29.655,27.086,29.137,27.604,28.498,27.604z M28.498,23.088H18.311
			c-0.64,0-1.156-0.518-1.156-1.156c0-0.638,0.518-1.156,1.156-1.156h10.188c0.64,0,1.156,0.518,1.156,1.156
			C29.655,22.57,29.137,23.088,28.498,23.088z"/>
	</g>
</g>
<g>
	<g>
		<polygon fill="#666666" points="47.773,41.374 23.887,55.165 0,41.374 0,13.792 23.887,0 47.773,13.792 		"/>
	</g>
	<g>
		<g>
			<path fill="#FFFFFF" d="M41.332,29.09l-1.268-1.364c-1.051-1.129-2.647-1.349-3.568-0.492l-4.083,3.799l5.02,5.5l4.137-3.849
				C42.488,31.827,42.382,30.219,41.332,29.09z"/>
			<path fill="#FFFFFF" d="M27.851,35.245c-0.921,0.855-0.813,2.465,0.235,3.594l1.269,1.364c1.051,1.129,2.646,1.349,3.567,0.491
				l4.024-3.744l-5.019-5.5L27.851,35.245z"/>
		</g>
		<path fill="#FFFFFF" d="M30.092,19.644h-4.686v-2.751c0-0.455-0.372-0.822-0.832-0.822h-7.712c-0.46,0-0.832,0.367-0.832,0.822
			v2.751h-4.687c-1.116,0-2.021,0.896-2.021,2v13.375c0,1.104,0.905,2,2.021,2h15.09c-0.201-0.816-0.027-1.639,0.545-2.17
			l5.136-4.779v-8.425C32.114,20.539,31.209,19.644,30.092,19.644z M17.89,17.983c0-0.274,0.225-0.496,0.502-0.496h4.652
			c0.277,0,0.502,0.222,0.502,0.496v1.66H17.89V17.983z M25.442,30.493h-2.828v2.828h-3.219v-2.828h-2.828v-3.219h2.828v-2.828
			h3.219v2.828h2.828V30.493z"/>
	</g>
</g>
<g>
	<g>
		<polygon fill="#FFFFFF" points="47.773,41.374 23.887,55.165 0,41.374 0,13.792 23.887,0 47.773,13.792 		"/>
	</g>
	<g>
		<path fill="#E15449" d="M19.522,22.494c-3.594-1.422-4.859,1.938-4.859,1.938s-2.047-3.141-4.858-1.938
			c-3.967,1.697-3.125,5.766-1.22,8.063c1.906,2.297,6.078,5.594,6.078,5.594s4.172-3.297,6.078-5.594
			C22.647,28.26,22.938,23.846,19.522,22.494z M16.733,30.062h-1.459v1.459h-1.416v-1.459h-1.459v-1.416h1.459v-1.458h1.416v1.458
			h1.459V30.062z"/>
		<polygon fill="#E15449" points="24.436,39.188 23.184,33.021 22.143,33.021 20.354,43.338 18.544,36.431 18.554,36.416 
			18.54,36.416 17.513,36.416 17.499,36.416 17.503,36.431 15.484,39.188 8.147,39.188 8.147,40.229 14.723,40.229 15.764,40.229 
			15.772,40.229 15.772,40.217 17.777,37.478 19.938,45.729 20.979,45.729 22.704,35.786 23.605,40.229 23.688,40.229 
			24.646,40.229 26.605,40.229 26.605,39.188 		"/>
		<path fill="#E15449" d="M32.502,28.647l7.651-9.007c0.563-0.664,0.563-1.741,0-2.405l-3.314-3.902
			c0.002-0.029,0.018-0.053,0.018-0.083c0-0.617-0.477-1.107-1.077-1.166c-0.038-0.004-0.071-0.022-0.11-0.022
			c-0.401,0-0.74,0.213-0.956,0.521c-0.135,0.193-0.23,0.415-0.23,0.667c0,0.655,0.532,1.188,1.188,1.188
			c0.187,0,0.355-0.051,0.513-0.127l2.633,3.1c0.477,0.562,0.477,1.472,0,2.034l-6.468,7.617c-0.479,0.562-1.251,0.562-1.729,0
			l-6.468-7.617c-0.479-0.562-0.479-1.472,0-2.034l2.633-3.1c0.156,0.076,0.326,0.127,0.512,0.127c0.656,0,1.188-0.532,1.188-1.188
			c0-0.253-0.097-0.475-0.231-0.667c-0.215-0.307-0.553-0.521-0.956-0.521c-0.039,0-0.071,0.019-0.109,0.022
			c-0.602,0.059-1.077,0.548-1.077,1.166c0,0.029,0.015,0.054,0.017,0.083l-3.313,3.902c-0.563,0.664-0.563,1.741,0,2.405
			l7.65,9.007c0.13,0.153,0.28,0.269,0.439,0.351v7.437c-1.378,0.271-2.418,1.482-2.418,2.94c0,1.656,1.344,3,3,3
			c1.658,0,3-1.344,3-3c0-1.457-1.038-2.67-2.416-2.94v-7.438C32.223,28.914,32.372,28.801,32.502,28.647z"/>
	</g>
</g>
</svg>
